ply
format ascii 1.0
element vertex 680
property float x
property float y
property float z
property uchar diffuse_red
property uchar diffuse_green
property uchar diffuse_blue
element face 0
property list uchar int vertex_indices
end_header
-0.2599290801073152 -0.26210137018749546 0.02193616933827469 129 132 151
-0.2646158335101605 -0.2670812371008934 0.019134041316665074 124 123 141
-0.2662657315567481 -0.26595309066565137 0.019187697671125048 86 82 99
-0.2646447953303473 -0.2670306648029152 0.01713511912622001 139 142 151
-0.26629468694541253 -0.26590252286983973 0.017188785304128595 142 140 145
0.022896311101661963 0.005469700481104317 0.0566639739310657 72 0 1
0.022755237173651695 0.007257189913104409 0.05688453473420996 70 0 0
0.021698691215664034 0.007979623755442422 0.05691893677551041 72 0 1
0.02064215588295971 0.008702050374711348 0.056953338476228965 72 0 3
0.01958563117553864 0.009424469770911104 0.0569877398363654 71 0 0
0.019455264518916746 0.011204638159091465 0.05720795203493978 71 0 0
0.021962128069529723 0.004437221848587761 0.055192747634658645 72 0 1
0.021818962882480385 0.006226101370379392 0.05541596807153071 70 0 2
0.02076028807859029 0.006949990766824871 0.05545044586940584 71 1 3
0.01970162392138704 0.007673872925651262 0.05548492332601307 72 1 5
0.01956702250020185 0.009456897007496232 0.05570786489319479 72 0 1
0.018510512539314364 0.010179306295687043 0.05574227220750938 70 0 0
0.018910662961855854 0.01159878065420461 0.05594806960493981 70 0 0
0.01785630446070046 0.012319718932089982 0.055982406864680034 72 0 1
0.016801956563424973 0.013040650001456364 0.05601674378452448 75 1 2
0.000901860318716273 0.025607828909819358 0.056753661133212785 69 1 2
-0.000150169541139257 0.026327175729344066 0.056787922659014556 65 0 0
-0.0012123196094498828 0.027061669976738353 0.05618472972480104 66 0 1
0.024976380301337163 0.0040868995605125025 0.05403004575556969 68 0 2
0.023917677686939025 0.00481080777906448 0.05406453088468932 69 0 0
0.0228589857192275 0.005534708759997148 0.05409901567254094 71 1 1
0.021800304398202804 0.006258602503310742 0.054133500119124545 71 1 1
0.02074163372386484 0.006982489009005069 0.054167984224440024 69 1 0
0.020604930444249565 0.008766910386698898 0.05439358571962061 70 0 0
0.01954841397932913 0.009489324013019135 0.05442799966927736 71 1 1
0.019946463228181926 0.010910195202401496 0.0546364569339195 72 0 1
0.019819384912818896 0.012688031290500654 0.05486174438725744 70 0 0
0.017837743847888325 0.012352073208434497 0.054705144357456326 72 1 5
0.016783400063561278 0.013073001398672415 0.05473948755938085 74 0 3
0.016662752067181052 0.014846440812495351 0.05496456558138163 70 0 0
0.015610562283588002 0.015565896265222368 0.05499883863433652 69 1 0
0.01455838308247133 0.01628534452398038 0.05503311134808153 69 1 0
0.013506214463830959 0.017004785588769278 0.05506738372261666 70 0 0
0.011511840200124114 0.016677534222076434 0.05491119847056403 70 0 0
0.010985868710116007 0.017039274850602054 0.05492860526787169 70 0 0
0.009931596501978057 0.017760154383336474 0.05496294617549846 72 0 1
0.00887733489771994 0.018481026707551765 0.05499728674322946 72 0 1
0.007823083897341633 0.019201891823247996 0.05503162697106434 72 0 1
0.005817032641556447 0.018882629162463485 0.054875822641192396 70 0 0
0.004760670243243899 0.019604938054281484 0.05491023165241016 70 0 2
0.00466039451948598 0.021364443919222514 0.055134645615193656 71 0 0
0.003606185934627068 0.022085280200842522 0.05516898448344487 72 0 1
0.0035123291072902078 0.023840397156566398 0.05539318938102922 70 0 0
0.002987490398312285 0.024201359272882667 0.05541055876346457 70 0 0
0.0019354434781505732 0.02492071760702827 0.0554448272370861 72 0 1
0.0008834071404653504 0.025640068747204925 0.055479095371497755 63 0 0
-0.0001686186147434425 0.026359412693412645 0.055513363166699525 61 1 1
-0.0012206337874759304 0.027078749445651265 0.05554763062269141 67 1 2
-0.01128271370123858 0.03566013961004495 0.05546035129313753 60 2 1
0.024957709583178504 0.0041194091341697076 0.05274756861967422 66 0 1
0.02389901109833239 0.004843314461970477 0.052782060056234203 65 0 0
0.02284032326017308 0.005567212552152048 0.05281655115152617 64 0 0
0.021781646068700457 0.006291103404714379 0.0528510419055499 67 0 0
0.020722979523914584 0.0070149870196575675 0.052885532318305506 70 0 0
0.020586317956590463 0.00879934004609921 0.05311372392019653 71 1 1
0.01952980561292036 0.009521750787479674 0.05314814416461333 66 0 1
0.01847330389453353 0.010244154305790953 0.05318256406844846 66 0 0
0.018873533664487463 0.011663494734553664 0.053393541726006966 70 0 0
0.01781918338922906 0.012384427254182206 0.05342789154990746 70 0 2
0.016764843717850617 0.013105352565291828 0.05346224103391206 72 0 1
0.016644237371395275 0.014878723671601812 0.05368990906105253 69 1 2
0.01559205169244884 0.015598176251011786 0.05372418838340731 64 0 0
0.01453987659597883 0.0163176216364527 0.05375846736655243 69 1 0
0.013487712081985185 0.017037059827924625 0.05379274601048767 70 0 0
0.012962798753214752 0.017398072587809038 0.05381012418575004 70 0 0
0.010967335036562973 0.017071610105812915 0.05365139649916861 72 0 1
0.009913066941373486 0.01779248675941887 0.053685743688875576 72 0 1
0.008858809450063806 0.018513356204505726 0.05372009053868654 72 0 1
0.007804562562634093 0.01923421844107366 0.05375443704860161 70 0 0
0.005798477953489017 0.01891501827999452 0.05359605539200074 71 1 1
0.005696100599414045 0.020675921288652158 0.053823129048743756 72 0 1
0.004641885523623802 0.02139676189966276 0.05385747453897105 71 1 1
0.003587681051713497 0.022117595302154486 0.053891819689302345 74 0 1
0.00402108256260102 0.02351424197197323 0.05410171506081485 72 0 1
0.002969029164609671 0.024233604626770877 0.054135990143046264 70 0 0
0.0019169863490946862 0.024952960087599493 0.0541702648860678 70 0 0
0.0008649541160561693 0.025672308354459175 0.05420453928987945 67 3 4
-0.0001870675345059733 0.02639164942734981 0.05423881335448111 60 0 0
-0.001239078602591745 0.027110983306271444 0.054273087079873106 65 1 1
-0.0022910790882009827 0.02783030999122424 0.05430736046605522 61 1 1
-0.003343068991333936 0.028549629482207933 0.05434163351302734 60 0 0
-0.004395048311990359 0.02926894177922275 0.054375906220789694 61 0 0
-0.00491982406856761 0.029629861017510223 0.054393279986323595 60 0 0
-0.0049922193526451344 0.03137025550065385 0.054619375833971584 60 0 0
-0.006042037263045842 0.03208809002333142 0.054653578142313974 62 1 0
-0.0070918446123736795 0.03280591736658996 0.05468778011213249 62 0 1
-0.0081416414006285 0.03352373753042963 0.05472198174342713 56 0 0
-0.00919142762781034 0.03424155051485046 0.05475618303619789 60 2 1
-0.010241203293919289 0.034959356319852225 0.05479038399044511 60 0 0
-0.011290968398955225 0.03567715494543516 0.05482458460616835 60 2 1
-0.012340722942918173 0.03639494639159922 0.054858784883367595 37 2 6
0.026906978088863977 0.004497170651342169 0.051627305452740635 64 0 0
0.02493903901979499 0.0041519184762991435 0.0514651012226105 62 0 1
0.023880344664500945 0.00487582091334865 0.051499598966610605 62 1 0
0.02282166095589381 0.0055997161127791795 0.05153409636934281 64 0 0
0.02176298789397322 0.006323604074590275 0.051568593430806886 66 0 1
0.020704325478739422 0.007047484798782214 0.05160309015100284 71 1 3
0.009894537534921708 0.017824818904904366 0.05240855090192753 72 0 1
0.008840284156560567 0.01854568547086284 0.05244290403381857 72 0 1
0.007786041382079226 0.019266544828302243 0.05247725682581372 70 0 0
0.005779923419885601 0.01894740716646323 0.05231629786206238 72 0 1
0.005677587644756291 0.02070824191762405 0.052545961390116136 72 0 3
0.0046233766819146205 0.02142907964950641 0.0525803131624234 72 0 1
0.003569176322952689 0.022149910172869575 0.05261466459483488 72 0 1
0.004002617378093435 0.023546489969047096 0.052827149851092936 72 0 1
0.0029505680847488076 0.024265849750527757 0.05286143120272435 71 0 0
0.001898529373880506 0.024985202338039275 0.052895712215145996 70 0 0
0.0008465012454887053 0.025704547731581956 0.052929992888357646 64 0 0
-0.00020551630042666552 0.02642388593115573 0.052964273222359304 57 0 0
-0.0012575232638657036 0.02714321693676039 0.0529985532171513 60 0 0
-0.002309519644828357 0.027862540748396003 0.05303283287273319 60 0 0
-0.0033615054433146045 0.02858185736606271 0.053067112189105425 65 1 1
-0.004413480659324374 0.02930116678976047 0.053101391166267775 63 0 0
-0.004938254312740229 0.029662084515340886 0.053118771265357245 65 1 1
-0.005990211009416234 0.030381381349592992 0.05315304964890222 62 1 0
-0.0060604219483586415 0.03212024247782684 0.05338166535891731 61 1 1
-0.0071102252013416425 0.032838066953579687 0.05341587358545563 59 1 0
-0.008160017893251537 0.033555884249913764 0.05345008147347019 58 0 0
-0.00920980002408852 0.034273694366828894 0.053484289022960874 58 0 0
-0.010259571593852542 0.03499149730432509 0.053518496233927904 60 0 0
-0.011309332602543576 0.03570929306240242 0.05355270310637106 57 1 0
-0.012359083050161694 0.036427081641060816 0.05358690964029034 34 3 8
0.026888341182631205 0.004529617158256727 0.05034742532326175 64 0 0
0.024920368611186693 0.004184427586900907 0.05018264356437818 62 0 1
0.023861678385444764 0.004908327133199247 0.05021714761581875 59 0 0
0.022802998806389606 0.005632219441878458 0.05025165132599119 68 2 3
0.02174432987402116 0.006356104512938401 0.05028615469489539 70 0 0
0.006817729700591132 0.018257488361801882 0.05100212181529695 72 0 1
0.005761369040746141 0.018979795821869594 0.05103655005137708 70 0 0
0.005659074844251426 0.020740562315999148 0.05126880343116336 72 0 1
0.004604867994358136 0.021461397168752963 0.05130316148555081 72 0 1
0.0035506717483448046 0.02218222481298783 0.05133751920004215 70 0 0
0.003984152347427612 0.023578737735989605 0.05155259432146775 70 0 0
0.0029321071587296403 0.02429809464415318 0.05158688194249916 68 0 1
0.0028437223266921195 0.02604934642133218 0.0518186814671463 70 0 0
0.0008280485287629792 0.025736786878573434 0.051655456166932456 61 0 0
0.0007439497557122504 0.02748510809823887 0.051887116019305846 61 1 1
-0.0012759677712981254 0.0271754503371177 0.051724029034526 66 0 1
-0.0023279600476140035 0.027894771275436436 0.05175831495950811 61 0 0
-0.003379941741453601 0.02861408501978606 0.05179260054528023 60 0 0
-0.004431912852816716 0.02933339157016676 0.05182688579184247 65 1 1
-0.00495668440307102 0.029694307783040302 0.0518442722244874 65 1 1
-0.006008636995100371 0.030413601743975324 0.05187855687743237 62 0 1
-0.007060579004653428 0.031132888510941245 0.05191284119116746 61 1 1
-0.0071286056367789626 0.03287021631090355 0.052143976719296936 59 1 0
-0.00817839423234401 0.03358803073973193 0.052178190864031415 56 1 0
-0.009228172266836004 0.034305837989141566 0.05221240467024213 55 0 0
-0.01027793974025526 0.03502363805913199 0.05224661813792886 59 1 0
-0.01132769665260137 0.03574143094970372 0.05228083126709193 55 1 1
-0.011851343756706087 0.036101574316924304 0.05229818051319168 41 0 0
0.026879877630143087 0.0045468453737392694 0.04970767747080185 61 0 0
0.02491189204324239 0.004201687759745401 0.04954160727018719 62 0 3
0.02385320589590597 0.004925584491802526 0.04957611441080312 62 0 3
0.022784336811660613 0.005664722539450065 0.048969216021471085 66 0 1
0.021725672008844288 0.006388604719758856 0.04900372569781575 70 0 0
0.007748999483428349 0.019331196910969198 0.0499229254792628 70 0 0
0.006694775538723947 0.02005204330163282 0.04995729049552211 71 0 0
0.005640562197899362 0.020772882483777358 0.04999165517188553 70 0 0
0.004586359460954651 0.02149371445740289 0.05002601950835295 70 0 2
0.003532167327889791 0.022214539222509294 0.050060383504924366 68 0 1
0.003965687470603465 0.0236109852728007 0.050278048471939285 70 0 0
0.0029136463865521607 0.024330339307647192 0.05031234236237059 71 1 1
0.002825303078773482 0.026081522866188103 0.05054673163028134 70 0 0
0.001775415609092057 0.02679940442684542 0.05058095533234275 61 0 0
0.0007255387004834572 0.02751727880808362 0.0506151786958805 60 2 1
-0.0003243276470520362 0.028235146009903136 0.050649401720894494 63 1 2
-0.001374183433514562 0.02895300603230369 0.05068362440738461 60 0 0
-0.0024240286589043147 0.029670858875285144 0.05071784675535096 61 1 1
-0.0029477423110755643 0.03003104739908115 0.05073520452260094 62 0 1
-0.004975114339560115 0.02972653082060829 0.05056978286371416 65 1 1
-0.005047385237026601 0.03146672077765911 0.050803647695176424 61 0 0
-0.00707900073184908 0.031165105801875273 0.05063836436919411 60 0 0
-0.007146985918685671 0.03290236543856154 0.050872089513656515 59 0 0
-0.008196770417905865 0.033620176999884246 0.050906309915111025 58 0 0
-0.009246544356053092 0.03433798138178812 0.05094052997804155 59 1 0
-0.011286646526710305 0.03404216943678123 0.05077552330963564 59 0 0
-0.012338531519234489 0.03476141736058544 0.050809812196721316 57 3 3
-0.011869705554325587 0.03613371046491215 0.051026324655176425 39 0 0
0.026861240994222352 0.004579291476294836 0.04842781435001631 65 1 1
0.024893221905490544 0.004234196465173534 0.04825916665491026 62 0 1
0.023834539887706264 0.004958090306479493 0.04829368010296642 60 0 0
0.022775868516608837 0.005681976910166364 0.048328193209754455 64 0 0
0.021717207792198035 0.006405856276233884 0.04836270597527459 65 0 0
0.0067806131632037366 0.01832227074930741 0.048442642762166144 72 0 1
0.005724260745859411 0.019044572439495575 0.04847708358776681 71 1 1
0.005622049705700186 0.02080520242095872 0.048714516612282655 70 0 0
0.004567851081703947 0.02152603151545579 0.04874888723083004 70 0 0
0.0035136630615875825 0.022246853401433828 0.04878325750948165 71 0 0
0.003947222747620941 0.023643232579480283 0.04900351230250721 72 0 1
0.002895185768216433 0.02436258374100987 0.049037812462338515 72 0 1
0.00280688398438551 0.026113699081378283 0.04927479145393443 68 0 0
0.0017570006110488971 0.026831577774529825 0.04930902141271576 70 2 3
0.000707127798785262 0.027549449288262515 0.049343251032973545 61 0 0
-0.00034273445240539865 0.02826731362257623 0.049377480314707345 66 0 1
-0.0013925861425230328 0.028985170777471217 0.04941170925791738 60 0 0
-0.002442427271567793 0.029703020752947173 0.04944593786260354 57 0 0
-0.0029661388248314047 0.030063207767095576 0.049463301950599226 58 0 1
-0.004015961471998432 0.03078104517858847 0.049497529962868825 60 0 0
-0.0050657735580926615 0.031498875410662236 0.04953175763661444 60 0 0
-0.007097422305203185 0.03119732286267768 0.04936389722731749 60 2 1
-0.007165366047061954 0.032934514336553394 0.04960021196853448 59 0 2
-0.00821514644993717 0.03365232303037061 0.04963443862670869 60 0 0
-0.00926491629173945 0.03437012454476886 0.04966866494635924 57 0 0
-0.010314675572468797 0.03508791887974819 0.04970289092748581 58 0 0
-0.011364424292125152 0.03580570603530865 0.0497371165700885 54 3 2
-0.011888067198414565 0.03616584638323404 0.04975447845767955 39 0 0
0.026842604512765558 0.004611737347788025 0.04714796094848428 65 1 1
0.024874551922513918 0.004266704939073981 0.04697673577846506 64 0 0
0.023815874034281703 0.004990595889628691 0.04701125553396157 64 0 0
0.022757206792736323 0.005714479602564326 0.047045774948189845 64 0 0
0.021698550197877708 0.006438356077880805 0.047080294021150104 65 0 0
0.0067620551262060555 0.018354661596466718 0.047162917814480676 72 0 1
0.005705706830112001 0.019076960401715026 0.0471973649348415 72 0 1
0.005603537367653833 0.020837522127543223 0.04743738775235451 72 0 1
0.004549342856606235 0.02155834834291208 0.04747176465298231 71 0 0
0.004453592205347058 0.02331452122047789 0.04771157817499616 72 0 1
0.0039287581784803235 0.023675479656028675 0.04772898581317164 71 0 0
0.0028767253037224414 0.024394827944241207 0.047763292242403055 71 0 0
0.0027884650435279733 0.026145875066902344 0.048002860938105796 67 1 2
0.0017385857665364046 0.026863750892548457 0.048037097153607156 62 0 0
0.0016567439269279949 0.028610409432485953 0.048276456566331616 65 1 1
-0.0003611411042281354 0.02829948100558359 0.04810556856903847 65 1 2
-0.0004386970630809832 0.030043209110176605 0.04834478823752508 61 0 0
-0.0024608257307007983 0.029735182400943153 0.048174038630374394 60 2 1
-0.0029845351850567477 0.030095367905443954 0.048191409039115785 59 1 0
-0.004034353735878852 0.030813202449431254 0.04822564330810519 61 1 1
-0.005084161725628103 0.031531029813999537 0.048259877238570725 60 0 0
-0.007115843724715416 0.031229539693348934 0.048089439765537256 61 0 0
-0.008167762837851925 0.031948810646394876 0.04812374254826246 59 1 0
-0.008233522328437989 0.03368446883119093 0.048362576998824625 54 0 0
-0.010271569316695685 0.03338733097057989 0.04819234709608322 56 0 0
-0.011323456682402946 0.03410658034171894 0.04822664886117867 55 0 0
-0.012375333465633881 0.03482582251888891 0.04826095028706434 51 3 1
-0.011906428688972882 0.03619798207189008 0.04848264192070073 31 0 0
0.026823968185772852 0.004644182988219003 0.04586811726620521 61 0 0
0.024855882094312366 0.004299213181446576 0.0456943146408515 66 0 2
0.02379720833563235 0.005023101241250202 0.04572884070378824 65 0 6
0.02273854522363907 0.0057469820634347 0.045763366425456864 64 0 0
0.021679892758332465 0.006470855647999832 0.04579789180585736 65 0 0
0.006753669306230992 0.01837183585261383 0.04652325361847298 70 0 0
0.006649377661892291 0.0201338254939685 0.04676464075496811 72 0 1
0.005595176608972326 0.020854656114930162 0.04679902107224665 72 0 1
0.005487172976331556 0.02262741157526063 0.04640274173995307 72 0 1
0.004435125686886646 0.023346769579601814 0.04643705503220186 72 0 1
0.0039102937631813085 0.023707726502445556 0.0464544690039328 72 0 1
0.0028582649930701497 0.0244270719173411 0.0464887817025641 71 0 0
0.0027700462562010725 0.026178050822760493 0.046730940082795436 59 1 0
0.0026861029508317216 0.02792610639657675 0.04697295902783627 54 0 0
0.0016383707343659917 0.028642514121030985 0.047007131614229425 63 1 2
-0.0003795476025203401 0.028331648158924888 0.04683366648388765 69 1 2
-0.0014293910999481907 0.029049499578808577 0.04686790794053752 61 0 0
-0.0024792240363031674 0.029767343819273248 0.04690214905866341 61 1 1
-0.0030029313917514233 0.03012752781412656 0.046919525788150396 60 0 0
-0.004052745846228681 0.030845359490608196 0.046953766313859724 62 2 2
-0.006082339399419774 0.030542481020190748 0.04678068259251866 59 1 0
-0.007134264990386031 0.03126175629388865 0.04681499198385375 62 0 1
-0.00818617999887581 0.03198102437361762 0.04684930103597884 59 0 2
-0.009238084424889156 0.03270028525937764 0.04688360974889427 55 0 0
-0.01028997826842619 0.03341953895116856 0.04691791812259949 58 0 0
-0.011341861529486734 0.03413878544899064 0.046952226157095045 60 2 1
-0.012393734208070939 0.03485802475284362 0.04698653385238072 51 3 3
-0.011924790026000678 0.03623011753088015 0.047210815044240184 27 0 0
0.027482804629770957 0.0025206430195063995 0.04432530806608792 58 2 5
0.027861889936189117 0.0039541872129459366 0.04455381982316253 66 0 2
0.026805332013244147 0.004676628397587715 0.044588283303179654 67 2 0
0.024837212420886098 0.004331721192291582 0.04441190324206967 66 0 1
0.023778542791758117 0.0050556063613440005 0.044446435612446655 66 0 2
0.02271988380931692 0.005779484292777234 0.0444809676415554 67 3 4
0.0216612354735625 0.006503354986591298 0.044515499329396246 67 0 7
0.006735111539545263 0.018404226295414106 0.045243545679480746 69 0 0
0.0066308614806650235 0.020166147676137003 0.045487522587391194 70 0 0
0.005576664540693572 0.020886975417970327 0.04552190918674981 72 0 1
0.005478833307720261 0.02264450794118751 0.04576567674043164 72 0 1
0.004953995499480945 0.023005468822849415 0.04578309410127002 74 0 3
0.0039019602007020378 0.023724818634445533 0.045817410209655796 75 1 2
0.0028499354843994594 0.024444161252072508 0.04585172597883158 69 0 0
0.0027617376850393206 0.026195102734515724 0.04609517873371205 55 1 1
0.0026778153007808968 0.02794312089667085 0.04633849204098128 46 0 0
0.0016300871217258574 0.028659525835171784 0.046372667685498414 59 1 0
-0.00039795394728195724 0.02836381508260033 0.04556177405925532 69 1 2
-0.0004754269428133215 0.03010740681128908 0.045806172950419666 61 0 0
-0.0024976221883749802 0.029799505007937405 0.045630269147470814 59 1 0
-0.0030213274449155877 0.030159687493143142 0.04564765219770328 59 1 0
-0.00407113780304786 0.030877516302119254 0.04568189898013253 59 1 0
-0.0051209376001073 0.03159533793167624 0.0457161454240379 58 0 0
-0.006170726836093793 0.03231315238181438 0.04575039152941951 59 0 0
-0.00820459700605801 0.032013237870708935 0.045574869203791724 59 1 0
-0.009256497327424708 0.0327324958831519 0.045609184186107155 58 0 0
-0.010308387066314956 0.033451746701625915 0.04564349882921259 60 0 0
-0.011360266222728732 0.034170990326130996 0.045677813133108036 61 1 1
0.02746412473609304 0.0025531581022115585 0.04304288741927198 64 4 12
0.026405429958128522 0.0032770602839654606 0.04307742703557649 66 0 2
0.025877219048497546 0.003640339455688313 0.04309496256303402 68 0 1
0.024818542902234994 0.004364228971608805 0.04312950158211937 70 1 4
0.023759877402659065 0.005088111249909974 0.043164040259936476 67 0 9
0.022701222549770035 0.005811986290592153 0.04319857859648568 69 0 2
0.021642578343567642 0.006535854093655008 0.04323311659176676 73 1 5
0.005766558970153995 0.0173955954578197 0.04375167402132907 70 0 2
0.006612345453590641 0.0201984696277087 0.04421041411948923 72 0 1
0.005558152626567659 0.020919294490413534 0.0442448070009277 72 0 1
0.0054603629538361 0.022676758770898475 0.04449116426840627 71 1 1
0.004935527248758245 0.023037718139853447 0.044508587962799995 72 0 1
0.0038834960546259914 0.023757065078132467 0.04454291034058577 73 0 0
0.0028314754429702212 0.024476404822442552 0.04457723237916178 69 3 4
0.002743319166390888 0.026227278088458497 0.04482327478430859 36 2 1
0.0026594382883096904 0.027975228045809167 0.04506917771648411 18 0 0
0.0016117141972978276 0.028691630122615983 0.04510335960504097 52 4 4
0.0005640006459553988 0.029408025034553822 0.045137541155760075 69 3 4
0.0009432803756123653 0.030720603499018978 0.04535126374717191 68 2 3
-0.0010063497682246472 0.030483867650023935 0.04518907348967516 61 3 2
-0.003029613624708615 0.030176723840841663 0.0450119165440398 55 0 0
-0.004079419937231384 0.030894549858206638 0.04504616639080328 60 2 0
-0.0051292156886810665 0.03161236869615287 0.04508041589904299 59 0 0
-0.006179000879057955 0.032330180354679966 0.04511466506875872 59 1 0
-0.007238885025261238 0.03306310763186178 0.04451279839322797 54 0 2
-0.008288649042756845 0.03378090485565653 0.04454705007828186 56 0 0
-0.01032679571036196 0.03348395422195194 0.044369089215922086 56 0 1
-0.011378670762129173 0.03420319497313985 0.04440340978921753 55 1 1
0.02653912763437776 0.001514813966332726 0.04154429137206317 62 3 7
0.026917228218466777 0.0029489560314406027 0.041778018666681516 65 1 2
0.025858545555069442 0.003672849894228933 0.04181256433447511 64 0 0
0.023888226000300182 0.0033295263239651873 0.04163109905815765 64 0 1
0.022827431690130354 0.004054864130441316 0.04166571364029914 64 0 1
0.022682561444998146 0.005844488056879163 0.04191619929024759 65 0 0
0.021623921368347884 0.006568352969190852 0.04195074359296891 70 0 0
0.006697996469566047 0.0184690064878279 0.04268415895925615 66 0 2
0.0065938295806689876 0.020230791348683427 0.0429333153512621 67 1 2
0.0055396408665945585 0.020951613332259866 0.04296771451478065 67 1 2
0.005441892753793745 0.022709009370478192 0.043216661476477625 70 0 0
0.004917059151877297 0.023069967226726135 0.04323409150442681 70 0 2
0.003865032062391794 0.023789311291688153 0.043268420151612585 62 1 0
0.00281301555538265 0.024508648162681168 0.04330274845958848 28 0 0
0.0027249008012730815 0.02625945321273543 0.043551380495423286 7 0 0
0.0016750378589257715 0.02697731764425365 0.04358563854541864 3 0 0
0.0006251854776514673 0.02769517489635301 0.04361989625689011 27 0 0
0.000545631962789915 0.029440126231103314 0.0438682489602823 49 0 0
0.0009249485051458194 0.030752642532697244 0.044084376647893775 53 0 0
-0.0010247122686929747 0.030515964478291288 0.04391979384617295 56 0 0
-0.0020723927479011743 0.031232336825145535 0.04395398071187817 57 1 2
-0.0031200626874398826 0.031948702007130916 0.043988167239745524 55 1 1
-0.004167722087308957 0.03266506002424763 0.04402235342977512 57 2 8
-0.006197384374508896 0.03236233102926436 0.04384282715437826 54 0 2
-0.007247154907467773 0.03308013264086711 0.043877082242290144 54 0 4
-0.008296914879353731 0.03379792707305089 0.04391133699167826 54 0 0
-0.00934666429016685 0.034515714325815655 0.043945591402542505 54 0 2
-0.01039640313990687 0.03523349439916165 0.04397984547488287 54 0 2
0.026520410408178412 0.0015473940856843976 0.04025930649295917 62 0 1
0.02545959089861438 0.002272748939063332 0.04029392833559475 67 0 0
0.024930320010391045 0.002636756963163775 0.04031151195987326 65 0 0
0.023869519169984855 0.0033620991252465288 0.040346133204089196 64 0 0
0.022808728997669014 0.004087434035160209 0.040380754106351 64 0 1
0.02174794949344326 0.004812761692904469 0.04041537466665868 64 0 0
0.02068718065730778 0.005538082098479585 0.04044999488501211 64 0 0
0.007629509066906213 0.019542286526094382 0.04162182049721519 60 0 0
0.006575313861900384 0.020263112839061487 0.04165622628270982 60 0 0
0.005521129260774374 0.020983931943509476 0.04169063172830845 61 0 0
0.005423422707593037 0.022741259739926398 0.04194216836464526 60 0 0
0.004898591208838007 0.023102216083467256 0.0419596047261499 57 0 0
0.003846568223999194 0.02382155727511233 0.04199393964273579 45 0 0
0.0027945558216367194 0.02454089127278826 0.04202827422011157 22 0 0
0.0017425540017507353 0.025260218076495353 0.042062608458277584 6 0 0
0.000690562764341103 0.02597953768623333 0.04209694235723371 15 0 0
0.000606775458753931 0.02772734405595262 0.042348024141962815 33 2 0
-0.0004430622651026006 0.02844519126112735 0.042382287771630334 50 2 2
-0.0005204314027429172 0.03018860922213286 0.04263316010670537 51 0 0
-0.0010430746159419899 0.03054806107735794 0.042650523843610566 51 0 0
-0.0020907510071070876 0.031264430562518014 0.04268471695335563 53 0 0
-0.0031384168586026176 0.03198079288280928 0.04271890972526271 54 0 0
-0.004186072170428611 0.03269714803823168 0.042753102159332146 49 0 2
-0.006215767716429243 0.03239448147418278 0.042570998900515966 49 0 0
-0.007265534153043214 0.033112280218279944 0.04260526024514777 51 1 2
-0.008315290028584322 0.03383007178295805 0.042639521251255696 47 0 0
-0.00936503534305251 0.03454785616821722 0.04267378191883997 48 0 0
-0.011405349558379088 0.0342524504058043 0.04249202523368745 51 1 2
0.025595300690420677 0.0005092459849254105 0.038752978832716 62 0 1
0.024532352336308662 0.0012360563890578408 0.03878767661960292 71 1 1
0.022493709039499005 0.00081877619643278 0.03858535982244926 65 0 0
0.02293908971457952 0.0023275924686758515 0.0388399991816033 66 0 1
0.021876170756574984 0.003054382889330076 0.038874696026229505 65 0 0
0.020813262488064102 0.0037811660432649635 0.03890939252821568 65 1 2
0.02066848639564048 0.0055706459780800605 0.03916505774971479 64 0 0
0.008665191085279019 0.018853780022646094 0.04031032243878707 62 0 1
0.007610989389341828 0.019574610665003822 0.04034473484625789 63 2 1
0.006556798297284502 0.020295434098842574 0.0403791469138326 62 0 1
0.005502617809107019 0.02101625032416221 0.040413558641511305 62 0 1
0.005404952815234065 0.022773509879243245 0.04066768493290973 61 0 0
0.004880123419640427 0.023134464710077074 0.04068512762796994 59 0 0
0.0038281045394482835 0.023853803028405077 0.040719468813955606 56 0 1
0.0027760962417325737 0.024573134152764117 0.0407538096607315 42 0 1
0.0017240985264932868 0.025292458083154126 0.0407881501682974 29 0 0
0.0016382097819715342 0.027041661468798273 0.04104189146264248 40 1 2
0.0005883655933870066 0.02775951298588636 0.04107616168755379 51 1 2
-0.00046146803412458817 0.028477357323555483 0.04111043157394123 56 0 1
-1.3753967180167581e-05 0.029863783658889462 0.04134706379036557 58 0 0
-0.0020349959330129494 0.029555376388880367 0.04116210651652685 61 1 1
-0.0021091091130935775 0.031296524070690016 0.0414154628357728 61 1 1
-0.003156770876546054 0.032012883529286995 0.04144966185171972 59 1 0
-0.004204422100328946 0.03272923582301518 0.041483860529829 60 2 1
-0.006234150904819134 0.03242663168943519 0.041299180307171945 54 0 0
-0.007283913245088192 0.03314442756602674 0.04133344790852356 54 0 0
-0.008333665024284308 0.03386221626319935 0.041367715171351516 59 3 2
-0.010371890886049475 0.033565422212666535 0.04118331232742256 59 0 2
-0.011423753674714633 0.03428465441995203 0.0412176485100626 56 1 4
0.025586780698549284 0.0005265812809796405 0.03810941367646392 63 1 2
0.02355039780527257 0.00010778017814326579 0.037905642073440715 71 1 1
0.022485178928886847 0.0008361430904732514 0.03794041722248509 67 0 0
0.021953715845589264 0.0012016587378528842 0.037958083404660115 66 0 1
0.021867665122192032 0.0030717082575281718 0.03823114334116584 67 1 2
0.02079452663964086 0.0038137980599010912 0.037621875223943335 66 0 2
0.01973163320677927 0.004540571044742661 0.03765657771608977 64 0 0
0.008646667448919065 0.01888610681008719 0.039033240205424646 59 0 0
0.0075924698659303805 0.019606934573316553 0.03906765889497543 63 0 0
0.006538282886821581 0.020327755128026925 0.03910207724463022 64 0 0
0.005484106511592545 0.0210485684742181 0.039136495254389 64 0 1
0.005386483076716705 0.022805759788428595 0.039393211181270704 61 0 0
0.004861655784284687 0.023166713106555645 0.03941066020988626 64 0 1
0.0038096410087392046 0.023886048551566536 0.039445007665272036 61 0 0
0.00371950784148848 0.025638114199150103 0.039701478433198045 56 0 0
0.0017056432050775658 0.025324697859681555 0.03951370155841383 49 1 1
0.00161979597379025 0.027073833036571654 0.03977003241203181 54 0 0
0.0005699558815506177 0.027791681686154132 0.03980430889366293 60 2 1
-0.00047987364961604023 0.028509523156317676 0.03983858503677029 61 1 1
-0.001529692619709852 0.02922735744706219 0.039872860841353774 58 0 0
-0.0020533953532517503 0.029587537844489448 0.03989027255682143 59 1 0
-0.0031031958414678325 0.03030535957125091 0.03992454776898835 59 0 0
-0.004152985768610992 0.03102317411859344 0.0399588226426314 57 0 0
-0.005202765134681112 0.03174098148651709 0.03999309717775057 63 1 2
-0.006252533939678263 0.032458781675021905 0.04002737137434609 61 1 1
-0.007302292183602607 0.03317657468410759 0.04006164523241762 58 0 0
-0.00835203986645379 0.033894360513774605 0.0400959187519655 58 0 1
-0.010390298953190151 0.03359762886999976 0.03990893901449433 55 0 0
-0.01144215763720861 0.034316858203968154 0.03994328146653425 53 0 1
0.02193493151387527 0.0012343665460424202 0.03666779260619857 68 0 2
0.02184892524416106 0.0031043430021941015 0.03694362703758425 66 0 2
0.01980455027712132 0.002691053783112282 0.036737354051871285 63 0 2
0.020641312019641835 0.005620494422830483 0.037237882588569304 62 1 0
0.019580566213908794 0.006345798963212315 0.03727251820059507 61 0 0
0.008628143966711913 0.018918433366931386 0.03775616767173706 61 0 0
0.007573950496671769 0.019639258251032382 0.037790592643367815 69 1 0
0.006519767630511437 0.020360075926614263 0.03782501727510268 66 0 1
0.005465595368230981 0.021080886393677153 0.037859441566941876 65 1 2
0.005368013492041263 0.022838009467482767 0.03811874710972829 62 0 1
0.004843188302770477 0.02319896127290262 0.038136202471899194 62 0 1
0.0037911776318717387 0.023918293844596525 0.03817055619668497 66 2 2
0.0037010859941479686 0.025670291272268803 0.0384296165296657 62 0 1
0.0016871880375034717 0.02535693740607746 0.03823926262862676 59 1 0
0.0016013823191395778 0.027106004374679166 0.0384981830219393 67 3 4
0.0005515463232448128 0.02782385015675598 0.038532465760290346 65 1 1
-0.000498279111576929 0.028541688759413902 0.038566748160117514 58 0 0
-0.0015480939853258803 0.029259520182652737 0.03860103022142092 58 0 0
-0.0020717946199600747 0.029619699070432506 0.038618448257634386 58 0 0
-0.0031215910118312963 0.03033751792968828 0.03865272972652112 58 0 0
-0.00417137684262953 0.0310553296095252 0.038687010856883974 56 0 0
-0.0042411215004713836 0.03279341070498068 0.03894540619364251 60 0 0
-0.005288754008498549 0.03350975011045158 0.038979617021993596 60 0 2
-0.007320670968586393 0.033208721572522595 0.038789852216829956 55 0 0
-0.008370414555092718 0.03392650453468389 0.03882413199309753 54 0 0
-0.00942014758052612 0.034644280317426265 0.038858411430841455 55 0 0
-0.010469870044886666 0.03536204892074961 0.03889269053006161 55 1 1
0.022893092092417168 0.0024101957240514893 0.03562140790016799 64 0 5
0.022744133524490735 0.0042024326203034534 0.03588368739874459 62 0 1
0.021683370520431275 0.004927748768461276 0.03591833001479905 65 0 6
0.009557707898408839 0.019992846601300865 0.03670684833181115 66 2 2
0.008505651065393841 0.02071221047103043 0.036741209937243724 64 0 0
0.007453604814855276 0.021431567146791064 0.03677557120346642 67 1 2
0.00640156914679316 0.022150916628582776 0.03680993213047934 61 0 0
0.005349544061207426 0.022870258916405428 0.03684429271828238 62 0 1
0.004824720975097995 0.023231209209118142 0.03686175441400885 62 0 1
0.004732527883106798 0.024984603662893692 0.03712347427600926 62 0 1
0.003682664300338069 0.02570246811572166 0.03715776428665174 62 0 1
0.0016687330237711191 0.02538917672234206 0.0369648333789363 55 0 0
0.0015829688180193993 0.02713817548312064 0.03722634329236507 60 0 0
0.0005331369184696268 0.02785601839769193 0.037260632287436035 60 0 0
-0.0005166844200072615 0.02857385413284419 0.03729492094398312 60 2 1
-0.0015664951974112343 0.029291682688577514 0.037329209262006335 59 4 1
-0.0020901937331378358 0.029651860066709584 0.037346633618965286 57 1 0
-0.0031399860286640754 0.03036967605845986 0.03738092134457205 60 1 3
-0.004189767763117445 0.031087484870791104 0.037415208731654825 59 0 2
-0.005239538936497749 0.03180528650370358 0.03744949578021384 58 0 0
-0.00530709939069747 0.033541834345939464 0.03771041055934987 59 0 0
-0.0073390496000396155 0.033240868231271606 0.037518068861760456 56 0 0
-0.008388789090201038 0.033958648325927335 0.03755235489474795 51 0 0
-0.00943851801928959 0.03467642124116402 0.037586640589211684 56 0 0
-0.010488236387305148 0.035394186976981865 0.03762092594515176 55 1 0
0.023786201102985197 0.0035096809192902284 0.03456412493911498 64 0 1
0.022725431568689364 0.004235001423054691 0.03459877421724389 64 0 0
0.009549352899152895 0.02000995283304624 0.03606982671066672 64 0 1
0.008497300119946533 0.02072931390550735 0.03610419138664389 62 0 1
0.006492888709658657 0.020409531786038396 0.035909660296274404 64 0 0
0.0054387246223343046 0.02113033657104682 0.03594409394694842 62 0 1
0.005858266845349002 0.022544122896173455 0.035552949433419356 62 0 1
0.004806253801267299 0.02326345691520243 0.0355873160362149 64 0 1
0.004714102246482546 0.02501678314418619 0.035851625436793655 62 1 0
0.0036642427600586704 0.02573464472950847 0.03588592170415594 62 0 1
0.00261439383470782 0.02645249913541188 0.035920217632994245 56 0 0
0.001564555470429902 0.027170346361896344 0.035954513223309004 58 0 0
0.0005147276672249207 0.02788818640896186 0.035988808475099776 56 0 0
-0.0005350895749070862 0.028606019276608427 0.036023103388367006 55 0 0
-0.0015848962559661776 0.02932384496483617 0.03605739796311014 54 0 0
-0.0021085926927849885 0.029684020833320834 0.03607482864081468 53 0 0
-0.003158380891966371 0.03040183395756542 0.036109122623141254 54 0 0
-0.004208158530074814 0.03111963990239107 0.03614341626694373 56 0 0
-0.005257925607110268 0.031837438667797854 0.03617770957222277 56 0 0
-0.006307682123072703 0.032555230253785775 0.03621200253897783 55 0 0
-0.007357428077962337 0.03327301466035458 0.03624629516720923 57 1 2
-0.008407163471778861 0.03399079188750476 0.036280587456916646 56 0 0
-0.00945688830452241 0.0347085619352359 0.0363148794081003 54 0 0
-0.010506602576193187 0.03542632480354799 0.036349171020760074 55 1 0
0.023767495164416258 0.00354225238661085 0.033279215195904044 64 0 0
0.022706729767974353 0.004267569993812767 0.03331387079415338 64 0 1
0.008478818644395567 0.020761571571651108 0.03482973512716703 62 0 1
0.006474373877268975 0.02044185195048462 0.03463262700085312 63 2 1
0.005420213902893066 0.02116265385636458 0.034667066933606994 63 0 0
0.004366064532397088 0.021883448553725496 0.03470150652646509 64 0 1
0.0047979171849506196 0.023280550348616924 0.03495031709202112 64 0 1
0.0037459187771539323 0.02399987437640841 0.03498468642615127 62 1 0
0.0036559311412359442 0.025751697940045976 0.03525022008410672 62 0 1
0.0026060862614947326 0.02646954955433843 0.035284519077279475 55 0 0
0.0015562519428265094 0.027187393989212064 0.035318817731928354 58 0 0
0.0005064281852310976 0.027905231244666553 0.03535311604805347 56 0 0
-0.0005534945762762852 0.028638184190706906 0.03475129549326894 56 0 0
-0.0016032971609903912 0.02935600701142904 0.034785596324732104 56 0 0
-0.003100737515974651 0.028691726881984292 0.03457096035839036 55 1 0
-0.003176775601738041 0.030433991627005108 0.03483733356222851 55 0 0
-0.004226549143501637 0.03115179470432508 0.03487163346275102 62 4 3
-0.005276312124192165 0.03186959060222627 0.03490593302474998 58 0 0
-0.006326064543809764 0.032587379320708515 0.034940232248224845 56 0 0
-0.007375806402354402 0.033305160859771824 0.03497453113317617 56 0 1
-0.008425537699826034 0.03402293521941625 0.035008829679603504 56 0 0
-0.009475258436224751 0.03474070239964175 0.035043127887506964 54 0 0
-0.010524968611550549 0.03545846240044832 0.03507742575688677 55 1 1
0.024660717343432864 0.004641540670833055 0.03222970242928869 65 1 2
0.023602088958679376 0.005365397008883652 0.03226429465580338 64 0 0
0.004779450280342906 0.023312797651971265 0.033675895654396215 64 0 0
0.0037274559771928884 0.02403211880644565 0.03371027125792636 62 1 0
0.0036375098696350347 0.02578387415191738 0.03397839440751782 62 0 1
0.002587669086238739 0.026501722898704255 0.03401269965741027 54 0 0
0.0015378388639153764 0.027219564466072182 0.03404700456877918 58 0 0
0.00048801920266495005 0.027937398854021175 0.034081309141624216 56 0 0
-0.0005617898975124672 0.028655226062551303 0.034115613375945375 56 0 0
-0.0010854901080559476 0.029015404372199738 0.03413305375664821 57 1 0
-0.003109043587926439 0.02870879912526217 0.033933993302780796 55 0 0
-0.004160955876884229 0.029428064526477046 0.03396836627743438 55 0 0
-0.005212857583365711 0.03014732273372281 0.034002738912878194 59 1 0
-0.00626474870737076 0.030866573746999665 0.034037111209112125 58 0 0
-0.0063444468110161745 0.032619528157965386 0.03366847161799014 53 0 0
-0.007394184573215969 0.03333730682952299 0.03370277675966116 55 0 0
-0.009430488238006334 0.03303943654334253 0.03350284351305155 55 0 0
-0.010482336981267576 0.03375865870469502 0.033537217651301465 54 0 0
-0.01001725992723057 0.03513297420191243 0.033788827400115684 55 0 0
-0.01205886228334159 0.034838731300550124 0.033589067991413035 57 0 6
0.024642049333839587 0.0046740461927547855 0.030947395722946802 65 1 2
-0.0031274795030040506 0.028741024572559018 0.032659631764607955 59 1 0
-0.0032034552246757997 0.030483183749398998 0.03292988854692758 56 0 1
-0.0052312852891499735 0.030179542434385642 0.03272838991350524 54 0 0
-0.006283172308508306 0.030898790574345483 0.03276276847913917 56 0 1
-0.0073350487453902255 0.03161803152033632 0.03279714670556322 55 1 1
-0.00838691459979568 0.032337265272358307 0.03283152459277727 57 1 2
-0.009438769871724852 0.033056491830411094 0.032865902140781555 58 2 3
-0.010490614561177593 0.033775711194494934 0.032900279349575956 55 1 1
-0.010025518672096681 0.035149990701114464 0.03315318329957462 56 0 0
-0.011075212784663134 0.035867739658240375 0.03318749023611578 56 0 5
-0.012124896336156675 0.03658548143594727 0.033221796834132955 42 6 18
-0.013184678155238883 0.03731833780277555 0.032620030892512974 16 17 47
-0.015232678082608274 0.03702850912302595 0.03241790276885792 0 1 43
0.0255353846788156 0.005773137569684075 0.029905652994142273 66 0 2
-0.0031459152642400734 0.028773249789724398 0.031385279906531505 60 0 0
-0.004197819343904424 0.0294925094443053 0.0314196654199852 58 0 0
-0.0052497128410924875 0.030211761904917103 0.0314540505942289 56 0 0
-0.006301595755804142 0.030931007171559874 0.03148843542926283 55 0 0
-0.007353468088039359 0.031650245244233724 0.031522819925086765 57 0 0
-0.008405329837798209 0.03236947612293854 0.03155720408170093 61 1 1
-0.009457181005080681 0.03308869980767434 0.0315915878991051 55 0 0
-0.010509021589886626 0.03380791629844129 0.0316259713772995 57 1 0
-0.010043886282682195 0.03518212902429155 0.03188146466615216 55 0 0
-0.01109357629890386 0.03589987511391171 0.03191577785941302 52 0 4
-0.01214325575405243 0.036617614024113065 0.031950090714150226 34 16 16
-0.013192924648128067 0.03733534575489551 0.031984403230363445 7 13 45
-0.003164350871634202 0.028805474776758586 0.030110937728551668 62 0 1
-0.004216250846652031 0.029524731558022224 0.03014532951140536 59 1 0
-0.005268140239193361 0.030243981145317053 0.03017972095504906 58 0 0
-0.006320019049258323 0.030963223538642864 0.03021411205948299 55 0 0
-0.006389483584409071 0.032700851106769874 0.030489337407949013 57 1 2
-0.007439209108309381 0.03341862125170535 0.030523658127394215 56 0 0
-0.00848892407113671 0.03413638421722198 0.03055797850831543 55 0 0
-0.009538628472891032 0.03485414000331975 0.030592298550712882 59 0 2
-0.010062253739737181 0.03521426711780269 0.030609755693247864 60 2 1
-0.011111939659613896 0.035932010339917234 0.030644075143228644 43 0 0
-0.01216161501841764 0.036649746382612966 0.03067839425468566 4 0 12
-0.013211279816148343 0.037367475245889764 0.03071271302761891 139 159 196
0.02565486178748982 0.004032461615824087 0.02770728725809879 70 0 2
-0.003182786325186801 0.02883769953366118 0.028836605230668555 64 0 1
-0.004234682195557896 0.029556953441607844 0.028871003282922136 62 0 3
-0.005286567483452496 0.030276200155585686 0.028905400995965835 62 2 2
-0.0063384421888708145 0.030995439675594413 0.028939798369799763 56 0 1
-0.007390306311812648 0.03171467200163419 0.028974195404423808 56 0 0
-0.007457586703431291 0.03345076636020933 0.02925193998082265 58 0 1
-0.008507297569913759 0.03416852645822027 0.029286266618463896 58 0 0
0.025636190228751347 0.004064969160268092 0.026425010764935197 72 0 1
-0.0032012216248976134 0.028869924060432428 0.027562282412881944 60 0 0
-0.004253113390622013 0.029589175095062106 0.027596686734535525 60 0 0
-0.0053049945738698825 0.030308418935722947 0.027631090716979223 58 0 0
-0.006356865174641398 0.031027655582414784 0.02766549436021304 58 0 0
-0.007408725192936581 0.03174688503513749 0.027699897664236972 61 1 1
-0.007475964145022631 0.03348291123904733 0.02798023149476936 63 1 2
-0.00852567091516019 0.03420066846955269 0.028014564389130414 62 0 1
0.025617518824788025 0.0040974764731843 0.025142744010603346 74 0 1
-0.003219656770766688 0.02890214835707232 0.026287969275191836 61 0 0
-0.004271544431844344 0.02962139651838501 0.026322379866245416 63 1 2
-0.005323421510445604 0.030340637485728822 0.026356790118089002 58 0 0
-0.006375288006570445 0.03105987125910356 0.02639120003072304 58 0 0
-0.00644462819821787 0.0327972943458007 0.0266741931796296 62 1 0
-0.007494341433083505 0.03351505588821932 0.02670853266923434 64 0 0
0.02559884757559979 0.004129983554572669 0.023860486995103014 65 0 0
-0.003238091762794132 0.028934372423580712 0.02501366581759834 64 0 0
-0.004289975319225016 0.029653617711576527 0.02504808267805203 65 1 2
-0.005341848293179602 0.030372855805603213 0.025082499199295616 61 1 0
-0.006393710684657786 0.03109208670566091 0.02511691538132943 59 1 0
-0.007445562493659477 0.03181131041174973 0.02515133122415336 62 1 0
-0.007512718567613676 0.03354720030772551 0.025436843504217377 61 0 0
0.026638793174043496 0.003438642640643849 0.022543599568126238 71 1 1
0.025580176481186826 0.00416249040443345 0.022578239718434423 64 0 0
-0.0032565266009797825 0.028966596259957858 0.02373937204010157 60 0 0
-0.0043084060527640924 0.02968583867463652 0.023773795169954925 60 0 0
-0.005360274922071952 0.030405073895346232 0.02380821796059862 60 0 0
-0.005431674903188851 0.03214382570333188 0.024096459655105873 59 0 0
-0.006481390506437618 0.032861588690158136 0.024130811996674217 61 0 0
-0.007531095548613403 0.03357934449756557 0.02416516399971891 61 0 0
0.026772893856266897 0.0016767665379719826 0.020969153494053927 73 1 5
0.02662011810485363 0.003471152149728096 0.021261355722848818 72 0 1
0.025561505541548943 0.004194997022766378 0.02129600218059735 71 1 1
-0.0032648316729603083 0.02898366700738178 0.023102467905119606 60 0 0
-0.004316707070935885 0.029702906624792025 0.02313689410551778 56 0 0
-0.004390228877153332 0.03144308610751674 0.0234264999724213 55 0 0
-0.005439950995865375 0.03216085348215113 0.02346085571684775 56 0 1
-0.0064997714302516656 0.032893735517837946 0.022859135895973992 55 0 0
-0.007549472376082448 0.03361148845773984 0.02289349415573838 58 0 1
0.02675417717131419 0.0017093442010535503 0.01968432969338907 75 2 13
0.02660144319043875 0.0035036614272844213 0.01997912161640314 75 1 2
-0.0022313843661177016 0.02829664650296665 0.021793758258783713 62 0 1
-0.003283266241922961 0.029015890441028966 0.021828191067791658 62 1 0
-0.004335137535251894 0.029735127185122154 0.02186262353758972 60 2 1
-0.004408617878509241 0.0314752384979584 0.022154818603669857 61 1 1
-0.0054583359008763335 0.032193003005087165 0.022189180604816117 60 0 0
-0.0065080433621705 0.032910760332796996 0.022223542267438834 60 0 0
-0.00755774026239172 0.033628510481087864 0.022257903591537564 58 0 0
0.027641383381686466 0.0028123241441580793 0.01866223783489218 72 0 11
-0.0017250820547417764 0.027967979282732924 0.020501942560410047 69 1 2
-0.002249822885885336 0.028328872579799505 0.02051948483215238 69 1 0
-0.0033017006570440002 0.02904811364454464 0.020553923910560323 64 0 0
-0.003377282239239318 0.030789621839692125 0.020848778299046522 60 0 0
-0.004427006726334514 0.031507390658734175 0.020883146895436577 62 0 1
-0.005476720652356749 0.03222515229835726 0.020917515153302868 62 1 0
-0.006526424017305986 0.0329429067585615 0.020951883072645394 59 1 0
-0.007576116821182442 0.03366065403934661 0.020986250653463934 59 1 0
0.027622704647269878 0.002844835849410199 0.017380016898669415 70 0 9
-0.0012163770028229617 0.02764185304110374 0.019210775398599722 70 0 0
-0.0022682612518113397 0.028361098426500808 0.01924522108561766 73 1 2
-0.0033201349183231525 0.029080336617929164 0.01927966643342549 69 1 2
-0.0033956750298790132 0.030821776638307458 0.019577109994611708 62 1 0
-0.002286699463895439 0.028393324043070975 0.01797096701917933 70 0 2
-0.003338569025760744 0.029112559361182053 0.018005418636387382 70 0 0
-0.002305137522138026 0.028425549429509533 0.016696722632837724 68 0 0
-0.003357002979356597 0.029144781874303624 0.016731180519445665 67 0 0
-0.0023235754265389062 0.028457774585816636 0.015422487926592732 72 0 1
-0.0033754367791106604 0.029177004157293837 0.015456952082600672 72 2 2
-0.002342013177097896 0.028489999511992617 0.014148262900444353 70 0 0
-0.0033938704250230448 0.029209226210152622 0.014182733325852181 67 0 0
-0.0033326963687823168 0.02749742599595187 0.012597995017564645 72 0 1
-0.004386681624167402 0.028218107672792064 0.012632541593423308 70 0 0
-0.003341021343251871 0.02751453264119437 0.011959859849993926 72 0 1
-0.0043950025366295 0.0282352115151083 0.01199440950260744 71 0 0
-0.003359496051242576 0.02754682224444173 0.01068307864760476 74 0 1
-0.004413473131671491 0.02826749823922753 0.010717634582298463 72 0 1
-0.005406412864164736 0.027276609571185884 0.009158430281351881 75 0 5
