ply
format ascii 1.0
element vertex 696
property float x
property float y
property float z
property uchar diffuse_red
property uchar diffuse_green
property uchar diffuse_blue
element face 0
property list uchar int vertex_indices
end_header
-0.040894857869655715 0.01438277017555464 0.058246437309529275 0 27 2
-0.04254809626364578 0.014262049010546627 0.058455741947655904 0 27 2
-0.04324537208332288 0.013243243306429958 0.05848893790587917 1 30 2
-0.04264267132889349 0.011831969206461996 0.058329816324080075 3 29 2
-0.043341289697903004 0.010811201950874608 0.05836307620293879 3 27 3
-0.04403990107948072 0.009790444964394612 0.05839633575253167 4 28 4
-0.044738505473626344 0.008769698247021781 0.05842959497285871 1 22 3
-0.045437102880340155 0.0077489617987563635 0.05846285386391992 5 24 5
-0.04615040562205186 0.006718408711458436 0.057877418069025244 4 28 4
-0.0468489889800649 0.005697692850725822 0.057910679406598 2 26 4
-0.035081490877205274 0.018135525430500166 0.05645465947471662 0 31 0
-0.03639615589260256 0.018512428530806833 0.056650423093194235 0 31 0
-0.03813154613536458 0.01844814270460445 0.05687627763191472 0 33 2
-0.03883020887877174 0.01742731011561384 0.0569095458188551 0 32 5
-0.03952886463474713 0.01640648779573061 0.05694281367652965 0 30 6
-0.04022751340329059 0.015385675744954714 0.05697608120493847 1 31 3
-0.040926155184401986 0.014364873963285979 0.05700934840408134 0 30 4
-0.042579330109327476 0.014244191485798016 0.05722105808687783 2 31 3
-0.043276603143636155 0.013225389757045777 0.05725426011886381 2 28 1
-0.04267396159288295 0.011814083001189038 0.057092745737518436 0 25 0
-0.043372577171124665 0.010793319728672745 0.057126011701914337 0 26 0
-0.04407118576193422 0.009772566725263583 0.05715927733704451 0 27 2
-0.04476978736531197 0.008751823990961815 0.05719254264290863 0 27 2
-0.04546838198125773 0.007731091525767262 0.05722580761950702 2 31 3
-0.046166969609771485 0.006710369329679989 0.05725907226683968 0 25 0
-0.04686555025085336 0.005689657402700025 0.05729233658490629 0 24 0
-0.04850714654415278 0.005585887725826303 0.05750349463822568 0 24 0
-0.04920435855672636 0.004567175677910894 0.057536693794709826 1 27 2
-0.04955417726924362 0.0040590115808270995 0.05755352288098936 1 27 2
-0.04931174339917936 0.0021184394813501053 0.057408989099282604 1 27 2
-0.05094856991178412 0.002021633606569491 0.057619919715128254 0 25 3
-0.05166043899279002 0.0009931525233517584 0.057035647095811104 2 28 3
-0.05235761780558493 -2.5510791457863946e-05 0.05706884779034427 2 30 7
-0.053054789644467124 -0.0010441638570290943 0.05710204815624842 0 29 7
-0.025640905165232472 0.031954361343812146 0.05476127221774296 3 38 5
-0.026342487744569126 0.030929261437018057 0.05479468562487244 1 34 3
-0.02704406330839526 0.029904171840597262 0.05482809870141303 0 32 5
-0.02774563185671071 0.028879092554549696 0.05486151144736451 0 31 7
-0.0284471933895154 0.027854023578875224 0.054894923862726985 0 32 3
-0.029148747906809644 0.026828964913574144 0.05492833594750057 0 31 0
-0.030474915527193988 0.02718901235250993 0.05512705583559441 0 34 7
-0.030202330241266312 0.025292530893744454 0.05497868951551732 0 33 6
-0.03090386546590626 0.02426750058196973 0.05501210069117113 2 36 9
-0.03160539367503555 0.02324248058056818 0.055045511536235936 2 33 2
-0.03230691486865414 0.022217470889539834 0.05507892205071163 0 30 0
-0.032041076215239314 0.02031113187065469 0.05493087705088917 1 34 5
-0.03370993620935955 0.020167482438602904 0.05514574208789624 2 32 4
-0.03441143635644618 0.019142503678694196 0.05517915161060516 1 32 1
-0.035112929488022304 0.018117535229158807 0.055212560802724964 0 28 0
-0.036427532318032585 0.018494475128919427 0.05541072960531823 0 29 1
-0.038162854389744344 0.018430230709294768 0.055639173780528295 2 32 6
-0.03886151434238362 0.01740940210337521 0.055672448053005974 1 31 3
-0.04051871114170641 0.017282788865597514 0.055886757315110946 0 28 0
-0.040258813285366346 0.015367775698857875 0.05573899561016371 0 27 0
-0.04191328650914995 0.015245142112629522 0.05595317516975262 1 30 2
-0.04261056373200295 0.014226334110003368 0.05598638360413022 0 26 0
-0.04296043153900844 0.013718097742845669 0.05600322120888568 0 28 0
-0.042705251633434194 0.011796196945159071 0.05585568454716727 1 27 2
-0.04340386442090771 0.010775437655713531 0.05588895659710047 0 28 0
-0.045052205672788406 0.010661758291184577 0.05610284380083108 0 29 1
-0.04480106903355917 0.008733949884144582 0.05595549970916924 0 28 3
-0.04549966085873686 0.007713221402020945 0.05598877077130482 1 27 2
-0.04619824569648265 0.0066925031890046425 0.05602204150417467 2 26 2
-0.04689682354679654 0.005671795245095673 0.05605531190777846 0 27 2
-0.04853835641750312 0.005568064189852506 0.05626887488149801 0 26 0
-0.0488881788940768 0.005059894442745006 0.05628571035016616 1 27 2
-0.04958538289084741 0.00404119405712282 0.05631891533394162 0 27 4
-0.04934300685359787 0.002100591313812454 0.056171988826578145 2 28 3
-0.05097976996265126 0.0020038240335942537 0.056385324315606056 1 29 7
-0.05167695303768416 0.0009851543956876235 0.05641852831349503 1 27 2
-0.05237412913880453 -3.350499298048967e-05 0.05645173198275533 0 28 5
-0.05307129826601237 -0.0010521541324100964 0.05648493532338672 0 28 6
-0.05376846041930758 -0.0020707930226011896 0.056518138335389434 2 28 3
-0.024690859700631188 0.031075728661682546 0.05333456499950906 1 38 5
-0.025393794516271884 0.030048652847366117 0.0533680490618641 0 34 2
-0.027075533991808773 0.02988613575019925 0.05358593608096529 1 35 8
-0.027777099738141686 0.02886106046322843 0.05361935493690839 1 36 4
-0.028478658468963997 0.027835995486630863 0.053652773462262604 0 34 2
-0.029180210184275537 0.026810940820406422 0.053686191657027815 1 35 8
-0.029881754884076475 0.02578589646455523 0.053719609521204026 1 36 12
-0.030233788241624968 0.025274512848708425 0.05373655750755291 0 36 10
-0.0309353206642822 0.024249486536010317 0.05376997479319834 2 37 5
-0.031636846071428915 0.02322447053368555 0.05380339174825477 0 33 2
-0.03233836446306507 0.022199464841734025 0.0538368083727222 0 32 0
-0.03207258373653893 0.020293095044747033 0.05368637044225455 0 32 3
-0.0337413801998053 0.020149484388950575 0.05390364062989017 0 32 1
-0.03444287754490946 0.019124509628118683 0.05393705626259071 0 31 0
-0.035144367874502896 0.01809954517765992 0.05397047156470214 0 31 0
-0.03645890851955873 0.018476521876585918 0.05417104553323093 0 31 0
-0.038194162420685726 0.018412318863227962 0.05440207932535257 0 30 2
-0.03889281958255714 0.017391494240379432 0.054435359683367435 0 31 0
-0.039591469756996484 0.01637067988663807 0.054468639712116684 1 30 0
-0.040290112944003934 0.015349875802004033 0.05450191941159965 0 29 1
-0.04098874914357947 0.014329081986477315 0.05453519878181701 0 31 0
-0.042641797131672335 0.014208476883162782 0.05475171849941329 1 32 1
-0.04299166347229978 0.013700242552910281 0.05476856224008575 0 31 0
-0.043688925705437184 0.012681456461815795 0.05480177617312576 1 31 3
-0.04438618096466214 0.011662680619959894 0.0548349897775372 1 32 1
-0.04508342924997456 0.010643915027342542 0.05486820305331974 0 31 0
-0.045780670561374276 0.009625159683963592 0.05490141600047349 0 25 0
-0.046477904898861375 0.008606414589823096 0.05493462861899856 0 25 0
-0.04717513226243604 0.0075876797449211855 0.05496784090889473 1 27 2
-0.04787235265209802 0.00656895514925775 0.05500105287016199 0 28 5
-0.04856956606784733 0.005550240802832718 0.05503426450280069 1 27 2
-0.04891938707804297 0.00504207309263041 0.05505110610738595 1 27 2
-0.049616588289445304 0.0040233766823727715 0.055084317164924346 0 29 1
-0.049374270084577954 0.0020827432955175702 0.054934997950084385 0 29 1
-0.05007281195382196 0.0010620881129390358 0.054968272875212665 1 26 4
-0.05170815008017689 0.0009673489470309153 0.055183948365766344 0 29 1
-0.05240532339592881 -5.1306466272781764e-05 0.055217158108789355 0 25 0
-0.053102489737768266 -0.0010699516303378717 0.055250367523183574 2 26 2
-0.05379964910569504 -0.002088586545164601 0.055283576608949114 1 25 1
-0.054496801499709285 -0.0031072112107528027 0.05531678536608586 5 29 7
-0.027534082407805513 0.02694942461638962 0.05222395919007872 0 35 5
-0.029211672237405256 0.026792916877081317 0.052444056800523775 1 35 10
-0.029563709381461786 0.026281527577509404 0.05246101120733104 1 35 10
-0.0351758060366473 0.018081555276003677 0.05272839176064814 0 32 1
-0.03649028449718074 0.0184585687738061 0.05293137087693256 0 33 0
-0.038225470228188826 0.018394407166404093 0.05316499426638743 0 30 0
-0.03789051832241186 0.016412653469443376 0.052998083118584116 0 31 0
-0.03962277198296357 0.01635277615595606 0.05323156682422581 2 32 4
-0.040321412379203045 0.01533197605439298 0.05326485260924607 2 32 8
-0.041020045788010454 0.0143111862219371 0.05329813806500061 0 29 1
-0.04267303030833566 0.014190619805276316 0.05351706277272705 0 27 0
-0.04302289518258487 0.013682387511928847 0.053533912649316506 0 29 0
-0.04276783104422123 0.011760425280827323 0.0533815903550966 1 34 5
-0.044417407104210604 0.011644833529707486 0.05360035233429361 1 31 3
-0.045114652604154606 0.010626071912454531 0.053633571683838865 0 32 1
-0.045811891130185994 0.009607320544440141 0.05366679070475555 1 31 3
-0.046509122682304754 0.008588579425664112 0.05370000939704345 2 32 8
-0.04720634726051094 0.007569848556126616 0.05373322776070244 0 25 0
-0.04695936946836783 0.00563607137761548 0.05358129074215423 1 27 2
-0.04860077549518556 0.005532417564767099 0.053799663502134165 1 27 2
-0.04895059503900295 0.005024251891469836 0.05381651124263653 0 29 1
-0.04964779346503702 0.0040055594565767474 0.053849728373937644 1 30 2
-0.04940553309211963 0.0020648954264655683 0.0536980164698011 0 28 5
-0.05010407217059579 0.0010442442269580632 0.05373129748046668 0 27 10
-0.05173934689966343 0.0009495436473282784 0.05394937779606812 4 34 8
-0.0524365174300471 -6.910779061091582e-05 0.05398259361285407 0 30 2
-0.05313368098651802 -0.001087748979311666 0.054015809101011114 0 28 0
-0.05383083756907653 -0.0021063799187738264 0.05404902426053959 0 26 0
-0.05452798717772239 -0.003125000608997522 0.054082239091439055 3 27 5
-0.027565607801828373 0.026931361997041575 0.050979428570733565 0 37 6
-0.036170350014756866 0.018950948466272915 0.05167477995775238 0 31 2
-0.03652166025089898 0.018440615820580184 0.05169170563642311 0 33 0
-0.03825677781225342 0.018376495618822906 0.05192791860363266 0 33 4
-0.03792188848296424 0.016394708498958015 0.05175843007450909 0 32 3
-0.039654073985492214 0.016334872574516813 0.051994503332545405 0 31 0
-0.039322088707064315 0.014348842339353511 0.05182515319278769 0 33 2
-0.041051342209003236 0.014293290606639877 0.0520610867443948 0 32 1
-0.04174996583961074 0.013272515026362295 0.05209437795642058 0 31 0
-0.04305412666986397 0.013664532619901582 0.05229927243657784 0 29 1
-0.04279912041445719 0.011742539672525792 0.052144557353377086 0 32 3
-0.04444863302075308 0.011626986588409247 0.052365724269080594 1 32 1
-0.04514587573532851 0.01060822894652063 0.052398949692388896 0 31 0
-0.0458431114759916 0.009589481553870693 0.05243217478706841 0 28 0
-0.04654034024274206 0.008570744410459198 0.05246539955311891 0 30 2
-0.047237562035579814 0.007552017516286124 0.05249862399054084 0 28 0
-0.047934776854505104 0.006533300871351646 0.05253184809933387 0 28 0
-0.0486319846995177 0.005514594475655565 0.052565071879498104 1 31 3
-0.04898180277695696 0.005006430839263429 0.05258192575591769 2 31 3
-0.04967899841762265 0.003987742379734805 0.05261514896098163 2 28 1
-0.050376187084375634 0.0029690641694445907 0.05264837183741666 1 26 4
-0.05107336877721601 0.0019503962083928308 0.05268159438522302 0 20 2
-0.05177054349614392 0.0009317384965796885 0.052714816604400694 0 26 1
-0.052467711241159204 -8.690896599499592e-05 0.052748038494949356 0 27 2
-0.053164872012261805 -0.0011055461793312883 0.05278126005686923 0 27 0
-0.053862025809451916 -0.002124173143428984 0.05281448129016053 2 32 4
-0.05455917263272933 -0.003142789858288267 0.05284770219482293 3 28 6
-0.027582331417892292 0.02692318603651324 0.050357354163577894 1 38 7
-0.03758942939588038 0.019379407163227693 0.05065755339319611 0 32 1
-0.03828808517287971 0.018358584220484676 0.05069085233708859 0 31 2
-0.038986733962447145 0.017337771546848967 0.05072415095171512 0 33 4
-0.039685375764582476 0.016316969142320465 0.0507574492370757 1 31 3
-0.04038401057928602 0.015296177006899322 0.05079074719317056 0 32 3
-0.04108263840655754 0.014275395140585463 0.05082404481999947 0 32 3
-0.041781259246397015 0.013254623543378762 0.05085734211756243 1 31 3
-0.04308535793413708 0.013646677876828463 0.05106464160186985 1 31 3
-0.04378261181116941 0.012627903711827392 0.05109787375619845 0 32 8
-0.04447985871428928 0.011609139796064954 0.05113110558189837 1 31 3
-0.04517709864349646 0.010590386129540871 0.05116433707896939 0 29 0
-0.04587433159879109 0.009571642712255336 0.05119756824741162 1 31 5
-0.04657155758017319 0.00855290954420832 0.051230799087225165 0 32 1
-0.0472687765876425 0.007534186625399675 0.05126402959840992 1 30 0
-0.04796598862119937 0.006515473955829593 0.051297259780965665 0 27 0
-0.048663193680843764 0.005496771535498135 0.05133048963489295 1 29 6
-0.04901301029190498 0.004988609936011159 0.05134734964722931 0 28 5
-0.049710203147202134 0.003969925451846889 0.051380578926056186 0 28 0
-0.05040738902858684 0.002951251216921219 0.05141380787625405 1 26 4
-0.05110456793605887 0.0019325872312339412 0.05144703649782323 1 26 7
-0.05180173986961824 0.0009139334947851213 0.05148026479076351 1 26 4
-0.05249890482926517 -0.00010470999242508452 0.05151349275507533 0 27 4
-0.05319606281499949 -0.0011233432303968428 0.05154672039075803 1 27 0
-0.05389321382682108 -0.002141966219130185 0.051579947697812156 0 29 3
-0.026637969257855096 0.026036495330735012 0.04892016946174871 2 39 6
-0.0365844110866234 0.01840471036278967 0.049212403402770666 0 32 5
-0.037284523110485815 0.017381759539466916 0.04924577798322438 1 31 3
-0.03798462813235676 0.016358819006648435 0.04927915223372614 0 32 1
-0.0386847261522366 0.01533588876433456 0.04931252615427584 2 32 4
-0.03938481717012508 0.014312968812525011 0.04934589974487369 0 32 3
-0.04008490118602233 0.01329005915121994 0.049379273005519475 0 33 0
-0.04181255242974494 0.01323673220963808 0.04962031567491487 1 32 1
-0.04216309266354823 0.012727518546849092 0.04963721673168453 1 32 1
-0.04286169848461381 0.01170676890365108 0.0496705195385696 0 30 2
-0.04451108418481943 0.011591293152674712 0.049896496272746615 1 31 3
-0.04520832132865833 0.010572543461515184 0.04992973384358057 0 28 0
-0.04590555149858451 0.009553804019594079 0.049962971085785624 4 33 13
-0.0466027746945982 0.00853507482691147 0.049996207999362 0 31 4
-0.0472999909166993 0.007516355883467418 0.05002944458430947 1 31 3
-0.047997200164887704 0.006497647189261765 0.05006268084062826 2 31 3
-0.048694402439163564 0.00547894874429462 0.05009591676831815 1 27 2
-0.049044217583846736 0.004970789181712846 0.05011278291657173 1 27 2
-0.04974140765377555 0.0039521086729130545 0.05014601826916132 2 28 1
-0.0504385907497918 0.0029334384133517903 0.05017925329312212 2 28 1
-0.05113576687189553 0.0019147784030290708 0.050212487988454124 0 27 0
-0.05183293602008657 0.0008961286419447191 0.05024572235515734 1 29 4
-0.05253009819436509 -0.00012251086990110877 0.05027895639323188 0 28 6
-0.053227253394731014 -0.0011411401325083642 0.05031219010267751 0 25 0
-0.05392440162118435 -0.0021597591458771756 0.050345423483494356 1 29 4
-0.03660104260728117 0.01839660563200221 0.04859277445032251 2 32 6
-0.0373011519085512 0.01737365875062851 0.04862615201748022 0 33 4
-0.038001254207829946 0.016350722159759308 0.048659529254686085 0 32 1
-0.038701349505117305 0.015327795859394429 0.04869290616194 0 33 2
-0.03940143780041351 0.014304879849534118 0.048726282739241955 0 32 1
-0.04010151909371833 0.013281974130178082 0.04875965898659218 0 34 1
-0.04081633650243681 0.012249231224076264 0.04817304553237445 0 33 2
-0.04219438415423703 0.012709629403205072 0.04840020583305937 0 31 4
-0.04289298718453469 0.01168888374307812 0.04843351472548152 0 29 1
-0.043591583227400255 0.010668148352058352 0.04846682328863805 2 35 8
-0.04523954379081395 0.010554700942443457 0.04869513998622221 1 30 2
-0.04498875435083585 0.008626708377340826 0.04853343942715316 0 30 6
-0.04568732943140566 0.007606003793642922 0.048566747002511956 1 31 3
-0.047331205022749845 0.007498525290489118 0.0487948689482397 4 34 6
-0.04802841148556998 0.006479820571648014 0.04882811127832132 2 30 5
-0.04872561097447742 0.005461126102045282 0.048861353279774145 0 27 2
-0.04907542465278242 0.004952968576368635 0.04887822556394472 0 26 1
-0.04977261193734295 0.003934292042933376 0.04891146699029714 0 28 0
-0.05046979224799078 0.0029156257587365127 0.04894470808802076 0 29 0
-0.05116696558472607 0.0018969697237781954 0.048977948857115705 0 30 2
-0.051864131947548825 0.0008783239380583917 0.04901118929758186 0 30 4
-0.05256129133645887 -0.00014031159842300966 0.049044429409419 2 30 7
-0.053258443751456386 -0.0011589368856658872 0.04907766919262746 0 27 4
-0.053955589192541425 -0.0021775519236701193 0.04911090864720724 0 28 8
-0.037332524026046504 0.017355710349599603 0.04738652818439637 0 33 4
-0.038032623528742274 0.01633277775010055 0.0474199115198195 1 32 0
-0.03873271602944678 0.015309855441106034 0.04745329452529057 2 33 2
-0.03943280152815988 0.014286943422615828 0.04748667720081001 0 33 2
-0.04013288002488191 0.013264041694630241 0.04752005954637739 2 32 4
-0.04083295151961258 0.012241150257148965 0.047553441561992815 0 33 2
-0.042210963158773096 0.012701567277057207 0.04778189617612094 1 31 3
-0.04290956347213949 0.011680825550682814 0.04781520804903716 0 29 1
-0.043608156798074005 0.010660094093415735 0.04784851959268732 0 33 6
-0.044306743136576524 0.009639372905255916 0.04788183080707176 1 32 1
-0.045005322487647034 0.008618661986203376 0.047915141692190355 1 31 3
-0.04570389485128573 0.007597961336258188 0.047948452248043116 0 32 1
-0.047362418905794304 0.007480694846464905 0.04756030269020062 0 31 0
-0.04805962258324607 0.00646199410298828 0.04759355109404506 1 30 2
-0.04875681928678516 0.005443303608750012 0.047626799169260714 2 32 6
-0.04910663149871203 0.004935148119978479 0.0476436775893484 1 31 3
-0.04980381599790419 0.003916475561907735 0.04767692508946375 0 29 0
-0.05050099352318367 0.002897813253075334 0.0477101722609502 0 30 2
-0.05119816407455062 0.001879161193481478 0.04774341910380775 0 28 0
-0.051895327652005 0.0008605193831261806 0.04777666561803662 0 29 1
-0.052592484255546676 -0.00015811217799075253 0.047809911803636806 0 26 3
-0.05328963388517574 -0.0011767334898692208 0.047843157660608204 1 29 4
-0.053986776540892456 -0.002195344552509016 0.0478764031889507 0 28 3
-0.037363895919637805 0.017337762098124383 0.04614691376710123 1 35 11
-0.03806399262575064 0.01631483348999564 0.046180303200741735 1 35 0
-0.038764082329872204 0.015291915172371384 0.046213692304430176 0 34 1
-0.03946416503200245 0.014269007145251502 0.046247081078166885 0 33 0
-0.04016424073214157 0.013246109408636172 0.04628046952195164 0 31 0
-0.04086430943028918 0.012223221962525127 0.04631385763578422 0 30 0
-0.04156437112644569 0.011200344806918606 0.04634724541966517 0 31 0
-0.0419156338137181 0.010690081507736416 0.04636419689270799 0 33 0
-0.04261568325638984 0.00966722236051265 0.04639758409917305 1 36 4
-0.0443380258639441 0.009621495971999742 0.0466448546084266 0 31 0
-0.045036602424246716 0.008600789036018207 0.046678171579082384 2 33 2
-0.04573517199711738 0.007580092369143936 0.04671148822047233 0 31 0
-0.04643373458255595 0.006559405971376848 0.04674480453259644 1 32 1
-0.04807615029691158 0.006453975213420043 0.04697646832488778 1 32 1
-0.04842596634658877 0.005945814025401928 0.046993350028328496 1 32 1
-0.04912315510801896 0.004927135144234098 0.04702660083179966 1 31 3
-0.049820336895536596 0.0039084665123048125 0.04705985130664225 1 31 3
-0.05051751170914172 0.0028898081296140493 0.047093101452855834 0 30 6
-0.051214679548834116 0.001871159996161699 0.047126351270440736 0 29 1
-0.052862902141442125 0.0017688629410990524 0.04674134300601074 0 27 2
-0.05262367695162834 -0.00017591260860449348 0.0465754035758853 0 24 0
-0.053320823795889025 -0.0011945299451184763 0.04660865550661941 0 28 0
-0.054017963666237206 -0.0022131370323939317 0.046641907108724734 0 29 1
-0.03739526758932532 0.017319813996203137 0.04490730876559512 1 34 7
-0.03809536149885512 0.016296889379444592 0.044940704297452894 0 31 0
-0.038795448406393665 0.015273975053190513 0.04497409949935871 0 31 0
-0.03949552831194107 0.014251071017441 0.04500749437131246 0 33 0
-0.04019560121549701 0.013228177272195718 0.04504088891331448 0 34 1
-0.04089566711706186 0.012205293817455089 0.045074283125364545 0 35 3
-0.04159572601663533 0.011182420653218748 0.045107677007462654 0 36 0
-0.04194698723162571 0.010672159399142817 0.04512463464112737 0 34 0
-0.042647033877714444 0.009649304243289233 0.0451580279458097 1 37 1
-0.04334707352181194 0.008626459377940147 0.04519142092053996 3 25 2
-0.0440471061639182 0.007603624803095531 0.04522481356531838 3 31 6
-0.04576644891951048 0.007562223551272403 0.04547453358911213 1 33 9
-0.04646500871418116 0.006541541136576354 0.04550785598677343 0 30 2
-0.04810736100432701 0.006436149005429928 0.04574192455216508 0 29 1
-0.04845717558762608 0.005927989854316923 0.045758812391522796 0 29 1
-0.049154361563687896 0.004909314948513583 0.045792069268756896 0 28 3
-0.049851540565837196 0.003890650291948756 0.04582532581736232 1 31 5
-0.05054871259407384 0.0028719958846224088 0.045858582037338724 1 31 5
-0.05124587764839805 0.0018533517265346758 0.04589183792868645 1 32 1
-0.052879382661331215 0.0017608813278904567 0.046125484109704074 1 29 4
-0.052640186835308356 -0.00018390584192564882 0.045958348725495535 0 26 1
-0.05427096884278752 -0.00027239742295403005 0.04619186502637129 0 27 2
-0.054034468126568355 -0.002221122413431944 0.046024858207789454 0 27 3
-0.03742663903510861 0.01730186604383547 0.04366771317987783 1 36 12
-0.03812673014805565 0.016278945418447335 0.04370111480995287 0 37 6
-0.03985846935643507 0.01621937863683629 0.04395401920316977 0 35 7
-0.039526891367975645 0.01423313503918422 0.043767917080247076 3 40 7
-0.040226961474948725 0.013210245285309287 0.04380131772046647 0 35 2
-0.040927024579930485 0.012187365821938774 0.04383471803073369 0 38 3
-0.041627080682921105 0.011164496649072788 0.04386811801104917 0 39 8
-0.04197834042562926 0.010654237440102963 0.04388508180533579 1 41 14
-0.04267838427513512 0.00963138627561974 0.04391848120823527 12 37 18
-0.0433784211226496 0.00860854540164084 0.04395188028118291 0 3 0
-0.04407845096817292 0.007585714818166495 0.04398527902417848 1 14 5
-0.04579772561846532 0.007544354882643777 0.04423758835396241 6 36 12
-0.04649628262236803 0.006523676451018713 0.04427091683716078 0 30 0
-0.048138571488736376 0.006418322946393891 0.04450739015747307 0 33 2
-0.04848838460565738 0.005910165832186086 0.04452428413274789 1 32 1
-0.049185567796350846 0.004891494901747211 0.04455754708374471 0 28 0
-0.04988274401313167 0.0038728342205468086 0.044590809706112844 1 31 3
-0.051518908686260106 0.0037764235165588193 0.044826990465749006 2 30 5
-0.052214716398002556 0.002759762535370306 0.04486018780605039 0 28 0
-0.05291051714935177 0.0017431117835514306 0.044893384818359916 0 27 4
-0.05360631094030789 0.0007264712611024099 0.0449265815026777 0 29 7
-0.05430209777087058 -0.00029015903197711704 0.04495977785900385 2 31 3
-0.054651191198648946 -0.0007972699810456403 0.0449766371260939 1 30 2
-0.0374580102569881 0.01728391824102176 0.04242812700994947 3 33 7
-0.0381580985733522 0.016261001607003906 0.04246153473824177 0 30 2
-0.039889769627316135 0.016201476212029033 0.042717028532121115 0 28 2
-0.04058838498048052 0.015180711908786218 0.042750365981932936 0 30 2
-0.04025832151049631 0.013192313447976516 0.042561755943407165 0 31 0
-0.040958381818895204 0.012169437975976343 0.04259516235189187 0 30 2
-0.04130964534081483 0.011659173094234476 0.042612132554264104 2 32 4
-0.04200969339572892 0.010636315630616986 0.042645538385332804 1 18 8
-0.04270973444865177 0.00961346845750395 0.04267894388644977 0 2 0
-0.04340976849958342 0.008590631574895403 0.042712349057614674 1 1 1
-0.04410979554852372 0.007567804982791252 0.04274575389882762 0 1 0
-0.044809815595472785 0.006544988681191577 0.042779158410088614 2 19 3
-0.046527556307116344 0.006505811914703778 0.04303398708375894 9 35 10
-0.047226103532819114 0.005485147735256914 0.04306732132322866 3 31 6
-0.0485195934006825 0.005892341959009277 0.043289765252003454 3 31 6
-0.04921677380600763 0.00487367500393486 0.04332303427676332 2 30 8
-0.04991394723742018 0.0038550182980990194 0.04335630297289428 1 30 10
-0.05061111369492004 0.002836371841501543 0.04338957134039634 0 28 6
-0.05224585344341831 0.0027419891720386926 0.043628091812568326 0 27 10
-0.05294165141479866 0.0017253423878777763 0.04366129488686632 3 32 10
-0.05363744242578594 0.0007087058330866453 0.04369449763317268 2 30 8
-0.054333226476379906 -0.00030792049233488786 0.043727700051487184 2 30 5
-0.054682318440622796 -0.0008150294084468858 0.043744565442599415 3 29 4
-0.02740692398337566 0.029697615895215745 0.04054400413271997 0 40 8
-0.03652882766030756 0.016375326848276986 0.04097979909447391 0 33 2
-0.038189466774744635 0.016243057945114138 0.041221964082319595 0 34 1
-0.03888954529253437 0.015220155592970876 0.041255377578877206 0 31 0
-0.039589616808332825 0.014197263531332015 0.04128879074548297 1 32 0
-0.040289681322139934 0.013174381760197574 0.041322203582136896 0 30 0
-0.040989738833955944 0.012151510279567623 0.041355616088838754 1 30 0
-0.04134100088359337 0.011641247442931994 0.04137259245183278 1 27 0
-0.04204104614192462 0.010618393970684828 0.041406004381118744 0 4 0
-0.04274108439826452 0.009595550788942076 0.04143941598045309 0 0 0
-0.04446315453903031 0.009549989731403214 0.04169704377595129 0 0 2
-0.045161719936260905 0.008529298727705411 0.04173038508875593 0 1 0
-0.0458602783460596 0.007508617993114943 0.041763726072294505 0 9 0
-0.04655882976842628 0.006487947527631748 0.04179706672656747 0 22 0
-0.04820099178853686 0.006382671275184102 0.04203834950218077 0 24 5
-0.04855080197270156 0.00587451823478654 0.04205525574928981 0 24 5
-0.04924797959265832 0.004855855255076622 0.04208853084781239 0 23 1
-0.049945150238702454 0.003837202524605156 0.042121805617706065 1 26 5
-0.050642313910833944 0.0028185600433721595 0.04215508005897117 1 26 5
-0.05227699026626005 0.002724215957372312 0.042396005178937046 0 24 2
-0.05297278545767184 0.0017075731408694797 0.04242921431522362 0 26 1
-0.053668573688690185 0.0006909405537362454 0.04246242312351822 0 23 1
-0.054364354959315575 -0.00032568180402720026 0.042495631603821304 0 23 1
-0.05471344546002299 -0.00083278868718277 0.042512503118955824 0 23 1
-0.028401758855469472 0.03055437713994211 0.04013397614128689 1 42 10
-0.03752075202903514 0.01724802308405571 0.039948982917459186 0 34 1
-0.03822083475223319 0.01622511443277824 0.03998240284218613 2 33 1
-0.039952369498763005 0.016165671810142997 0.040243075378655124 0 33 2
-0.04065097927039142 0.015144915473042121 0.04027642499954143 0 33 6
-0.04032104090987973 0.013156450221972437 0.04008266063665533 0 32 1
-0.04170011584903566 0.013614964317941118 0.04032672167233298 0 33 0
-0.04239870640522615 0.012594236220885228 0.040360070387738256 1 32 0
-0.04309728997398456 0.011573518392936508 0.040393418773877476 6 32 7
-0.04379586655531119 0.01055281083409517 0.04042676683075119 0 3 0
-0.0444944361492058 0.009532113544361086 0.04046011455835885 0 1 3
-0.04519299875566843 0.008511426523734267 0.04049346195670056 6 25 6
-0.04589155437469922 0.007490749772214847 0.040526809025776434 4 33 3
-0.04659010300629794 0.0064700832898026 0.04056015576558658 1 31 3
-0.04823220160392798 0.006364845663010335 0.040803843241580706 2 31 9
-0.04858201032171457 0.0058566946595178665 0.04082075562460674 2 31 9
-0.04927918515630296 0.0048380356551724416 0.040854036796892035 2 30 5
-0.04997635301697864 0.0038193869000653913 0.04088731764054865 1 31 3
-0.05067351390374186 0.002800748394196943 0.04092059815557647 1 31 5
-0.051370667816592386 0.001782120137566904 0.0409538783419755 1 31 5
-0.05206781475553035 0.0007635021301754079 0.040987158199745855 0 30 2
-0.053699704729020775 0.0006731754230511651 0.04123035797371455 1 31 3
-0.0543954832196773 -0.0003434429670543214 0.0412635725160061 2 30 7
-0.05474457225684923 -0.0008505478172534837 0.041280450155162796 0 29 3
-0.02843316596517273 0.030536377761745878 0.038894330364926843 1 42 10
-0.02913334049266053 0.029513334130607635 0.038927757730709 0 41 9
-0.029484690697610963 0.029002941558205642 0.038944747592808415 0 39 5
-0.030184852971614204 0.027979915935450277 0.03897817438117468 0 44 5
-0.03518879996568436 0.018389161760707012 0.03842889391318771 0 33 2
-0.03788780623215607 0.019210088509797905 0.0389060438013723 0 34 4
-0.037552122579202665 0.017230075729903357 0.03870942499489749 0 34 1
-0.0392850551310365 0.017168532456201493 0.038972756860548685 0 34 1
-0.039983669099328864 0.016147769833064256 0.03900611289623801 0 33 2
-0.040682276080189234 0.015127017479034284 0.0390394686026615 0 35 3
-0.04138087607361761 0.01410627539411156 0.03907282397981926 0 35 3
-0.04173140839884473 0.013597072347858074 0.03908977750880216 0 35 2
-0.04242999616426728 0.012576348233873134 0.039123132309744735 0 35 5
-0.04312857694225772 0.011555634388995376 0.03915648678142114 0 32 1
-0.04382715073281643 0.0105349308132251 0.03918984092383193 4 23 4
-0.044525717535943005 0.009514237506561923 0.039223194736976774 0 6 0
-0.04522427735163764 0.008493554469006067 0.03925654822085578 4 33 13
-0.045922830179900384 0.00747288170055754 0.03928990137546884 0 33 4
-0.04662137602073106 0.0064522192012162 0.03932325420081617 0 33 4
-0.048263411196312944 0.006347020199790585 0.039569346359011104 0 34 7
-0.048613218447721485 0.005838871233203308 0.039586264877954136 0 33 6
-0.04931039049694133 0.004820216204222221 0.03961955212400248 1 31 5
-0.05000755557224883 0.0038015714244797813 0.039652839041421806 0 33 6
-0.05070471367364361 0.002782936893975751 0.039686125630212565 2 32 4
-0.051401864801125685 0.0017643126127101123 0.03971941189037442 0 32 3
-0.052099008954695394 0.0007456985806831157 0.03975269782190749 0 30 2
-0.05373083554677743 0.0006554104410313767 0.03999830218376177 0 32 1
-0.05442661125746523 -0.0003612039814161333 0.040031522788041674 1 34 5
-0.05477569883110189 -0.0008683067986586628 0.04004840655122055 0 35 5
-0.02369694025003144 0.03289648238748627 0.037089259812996156 0 45 16
-0.02538193280762202 0.032728500551930634 0.03733860781405829 1 44 17
-0.027064208383188196 0.032564488684152605 0.03758782608650113 1 42 8
-0.027764394118075617 0.031541428463375744 0.03762126021040435 0 44 11
-0.029517822950707234 0.03144991488408856 0.03788686755371906 0 42 12
-0.03686866571587835 0.018244886921627252 0.03805643089218069 0 35 3
-0.037568749921892255 0.017221975913164662 0.03808986023178107 1 35 2
-0.038268827125915034 0.016199075195206615 0.03812328924142938 1 34 3
-0.040000256365271825 0.016139694772269376 0.03838784528325978 0 33 4
-0.04069886062920092 0.015118946351991989 0.03842120397017723 1 36 4
-0.04036901672603582 0.013130434784359143 0.03822357429066303 0 35 3
-0.04176270072521551 0.013579180527017946 0.03785284274148193 0 35 2
-0.04246128569986991 0.012558460396103852 0.03788620362796158 1 34 3
-0.04315986368709247 0.011537750534297139 0.03791956418517539 0 34 1
-0.043858434686883066 0.010517050941597673 0.03795292441312326 1 29 4
-0.04455699869924175 0.009496361618005534 0.037986284311805285 3 31 8
-0.04525555572416842 0.008475682563520649 0.03801964388122148 1 33 10
-0.04595410576166303 0.007455013778142958 0.03805300312137183 0 30 4
-0.046652648811725816 0.006434355261872637 0.03808636203225624 0 29 3
-0.047947250112958084 0.006839709258697882 0.03831848986089248 0 32 5
-0.04864442635072222 0.0058210479558427845 0.03835178350933233 0 34 9
-0.04934159561457391 0.00480239690222628 0.038385076829143494 2 32 6
-0.05003875790451286 0.003783756097848208 0.03841836982032576 0 29 3
-0.05073591322053929 0.0027651255427086283 0.038451662482879234 0 32 5
-0.05143306156265309 0.001746505236807517 0.03848495481680392 0 32 5
-0.052130202930854325 0.0007278951801449988 0.03851824682209992 1 32 1
-0.05376196614196052 0.0006376456076770225 0.03876625575365944 0 31 2
-0.05445773907267945 -0.0003789648471125527 0.03879948241992792 0 33 8
-0.054806825182780655 -0.0008860656313986782 0.03881637230712898 1 35 10
-0.023728479678740005 0.03287839760408028 0.03584481061491329 0 42 14
-0.02541340864410721 0.03271045463701949 0.036096563656182745 0 42 14
-0.026114953555500517 0.031685408306047116 0.03613006891872628 0 43 15
-0.026816491451383137 0.03066037228544789 0.0361635738506807 0 43 15
-0.02954916416944911 0.031431953323483676 0.03664982402152561 0 41 13
-0.036900038670796775 0.018226935837823706 0.036816883349032214 1 37 1
-0.037600120080227936 0.017204028820731514 0.036850318786849856 0 35 2
-0.038300194487667666 0.01618113209414368 0.03688375389471543 0 33 4
-0.0390002618931162 0.015158245658060284 0.036917188672629275 1 35 11
-0.039700322296573595 0.01413536951248143 0.036950623120591164 0 32 1
-0.04040037569803957 0.013112503657406923 0.036984057238600876 0 33 6
-0.04177928099433313 0.013571115437195809 0.037234591179418075 0 34 2
-0.04247786325205641 0.012550399240034432 0.037267955046391577 0 32 3
-0.04317643852234772 0.011529693311980279 0.03730131858409913 0 33 2
-0.04387500680520712 0.010508997653033461 0.03733468179254096 1 31 3
-0.04457356810063452 0.009488312263193903 0.03736804467171684 0 33 6
-0.046219589805762046 0.009377202791085174 0.03761793841418859 0 31 7
-0.0469167825101115 0.008358517228965912 0.03765123594108488 0 30 6
-0.04762865102923443 0.007330034734632833 0.03706708075928955 1 31 5
-0.047978460578321044 0.006821882154926889 0.03708401179653831 1 31 3
-0.04867563403071698 0.005803224827436386 0.03711731151874109 0 33 6
-0.04937280050920022 0.004784577749184293 0.037150610912315085 2 32 6
-0.05006996001377072 0.0037659409201706226 0.037183909977260066 1 34 7
-0.050767112544428866 0.002747314340395603 0.03721720871357648 1 35 8
-0.05146425810117432 0.001728698009858979 0.03725050712126399 0 34 7
-0.052161396684007155 0.0007100919285608076 0.03728380520032282 1 34 5
-0.053793096514569747 0.0006198809229879046 0.037534218683408116 0 33 6
-0.054488866665319935 -0.0003967255641436837 0.037567451411664954 0 32 3
-0.0548379513118856 -0.0009038243154733533 0.03758434742288819 0 33 3
-0.022072436508119964 0.03303218706621841 0.034346083028053864 0 42 12
-0.022776702634025217 0.0320031644273914 0.03437972450880611 0 43 15
-0.02446292298681864 0.03183328050531309 0.03463394729498559 0 39 7
-0.02516582006192726 0.030806258370062553 0.0346675233897662 0 40 14
-0.026847961459567055 0.03064233451853294 0.03492155134675734 0 38 12
-0.028527385950858436 0.030482380524479838 0.03517544953057994 0 40 13
-0.036931411401811415 0.018208984903574102 0.03557734522167255 2 37 5
-0.03763149001465947 0.01718608187785205 0.03561078675770746 2 36 9
-0.03833156162551646 0.01616318914263459 0.03564422796379041 1 34 7
-0.03903162623438203 0.015140306697921489 0.03567766883992152 1 35 11
-0.03973168384125632 0.014117434543712774 0.03571110938610056 0 35 5
-0.041460044938284965 0.0140624208505409 0.03598070398809072 0 34 9
-0.04181057292968665 0.013553223877530586 0.03599767285546607 0 34 7
-0.042509152396641894 0.012532511663440087 0.036031042807976865 2 34 10
-0.04320772487616521 0.011511809718456925 0.036064412431221715 0 32 1
-0.0448564063812857 0.011396759732621005 0.03631684091271026 1 34 3
-0.04555361024809193 0.010378057647389246 0.03635014517062696 0 32 3
-0.04625080714098538 0.009359365811395784 0.036383449099914866 0 33 6
-0.04694799705996641 0.008340684224640925 0.03641675270057376 2 34 11
-0.04764518000503487 0.007322012887124606 0.03645005597260409 1 31 3
-0.04799498816143735 0.006813862295100923 0.03646699004673448 0 31 0
-0.048692158902158694 0.005795208893751855 0.03650029274366429 0 29 1
-0.04938932266896755 0.00477656574164141 0.03653359511196541 2 32 4
-0.05008647946186372 0.0037579328387693373 0.036566897151637634 0 32 5
-0.05078362928084716 0.0027393101851356967 0.03660019886268118 0 34 7
-0.05148077212591823 0.0017206977807407015 0.03663350024509604 0 33 6
-0.052192590214153844 0.000692288825930757 0.0360493729565764 0 32 3
-0.053824226664605165 0.0006021163869641306 0.03630219097300724 0 29 1
-0.05417331506793037 9.501199656368475e-05 0.036319093354246657 0 32 1
-0.0548690772184168 -0.0009215828508827469 0.03635233189849829 0 34 1
-0.022104039089449218 0.03301406369974465 0.033099247706872004 1 44 17
-0.023791557861851373 0.03284222848766223 0.03335594057519353 0 42 15
-0.02547635964406883 0.03267436325672495 0.03361250364233803 0 38 3
-0.026177898951496956 0.03164932492390602 0.03364602112486492 0 40 10
-0.02687943124341466 0.030624296901460474 0.0336795382768027 0 42 14
-0.03836292853946116 0.016145246340679282 0.03440471144865431 0 35 5
-0.03906299035174375 0.015122367887336355 0.034438158423002574 1 35 10
-0.03976304516203519 0.014099499724497987 0.03447160506739899 0 33 6
-0.04149133811942089 0.014044527399264706 0.03474378891253738 0 36 5
-0.04184186464160179 0.013535332467108219 0.03476076392772487 0 35 5
-0.04254044131778907 0.012514624236088685 0.03479413996577274 0 35 5
-0.04323901100654441 0.011493926274176506 0.034827515674554776 0 32 1
-0.04488762906423979 0.011378914951156806 0.035082348828941456 0 31 0
-0.045584830145677505 0.010360216841289372 0.03511565916062087 1 32 1
-0.04628202425320277 0.009341528980660534 0.035148969163671495 0 31 0
-0.04697921138681534 0.00832285136927009 0.03518227883809355 0 33 2
-0.047676391546515276 0.00730418400711811 0.03521558818388659 0 33 6
-0.048026198236539794 0.006796035451999683 0.03523252839393398 0 32 3
-0.04872336619189267 0.005777386026015017 0.03526583716462661 0 33 0
-0.049420527173333104 0.00475874684926896 0.03529914560669056 1 32 1
-0.05011768118086099 0.0037401179217614565 0.03533245372012561 0 33 0
-0.05081482821447615 0.0027214992434923344 0.03536576150493198 0 34 4
-0.0515119682741787 0.001702890814461698 0.03539906896110967 0 33 4
-0.052209101359968826 0.0006842926346696254 0.03543237608865846 0 32 1
-0.052906227471846215 -0.0003342952958840309 0.035465682887578454 0 32 3
-0.053603346609810976 -0.0013528729771992189 0.03549898935786966 0 33 0
-0.054885549488756485 -0.0009295536768768181 0.03573654281013661 0 37 3
-0.039094354245201676 0.015104429226305173 0.033198657421872446 3 38 18
-0.039794406258909995 0.014081565054836924 0.03323211016448624 2 38 12
-0.041522631077118385 0.01402663409723132 0.03350688323319473 0 37 6
-0.0418731561300784 0.013517441205928574 0.033523864396194036 0 37 6
-0.04352443401031113 0.013398489335367957 0.033781232326432264 1 36 4
-0.044221646254205826 0.01237977470238813 0.0338145493891322 3 38 8
-0.04491885152418772 0.011361070318646634 0.03384786612320312 0 33 2
-0.045616049820257076 0.010342376184143659 0.03388118252864547 0 35 3
-0.04631324114241399 0.009323692298879293 0.03391449860545903 0 29 0
-0.04701042549065819 0.008305018662853334 0.0339478143536438 0 34 1
-0.04770760286498979 0.007286355276065812 0.03398112977319967 2 36 11
-0.048057408088636164 0.006778208757852514 0.033998076119164056 0 33 9
-0.04875457325862077 0.00575956330723241 0.03403139096361962 1 35 2
-0.04945173145469266 0.004740928105850693 0.03406470547944629 0 34 1
-0.05014888267685218 0.003722303153707654 0.034098019666644386 0 33 2
-0.050846026925099014 0.0027036884508030105 0.03413133352521358 1 35 8
-0.05154316419943311 0.001685083997136759 0.034164647055154096 0 32 8
-0.052240294499854845 0.0006664897927092031 0.0341979602564656 1 34 3
-0.052937417826363894 -0.0003520941624799989 0.03423127312914842 1 35 8
-0.0536345341789603 -0.0013706678684307153 0.03426458567320245 1 36 6
-0.053984294072174865 -0.0018787477665938197 0.03428152988307975 1 38 5
-0.05561242470949038 -0.001963888684010092 0.034537790912694155 4 28 6
-0.04495007376112968 0.01134322583509059 0.032613392795495466 2 35 6
-0.04564726927183059 0.010324535675952037 0.032646715274700755 2 35 6
-0.046344457808619066 0.009305855766052074 0.03268003742527714 2 36 9
-0.047041639371494984 0.008287186105390656 0.03271335924722463 0 32 3
-0.04773881396045812 0.007268526693967558 0.03274668074054332 0 35 5
-0.048088617717726365 0.006760382212659375 0.032763633222424926 0 35 5
-0.048785780102342594 0.005741740737403748 0.03279695414064321 1 36 6
-0.04948293551304614 0.004723109511386509 0.03283027473023292 0 35 3
-0.05018008394983722 0.003704488534607874 0.03286359499119362 0 35 3
-0.050877225412715776 0.002685877807067777 0.032896914923525644 0 36 10
-0.05157435990168159 0.0016672773287660751 0.032930234527228874 0 34 14
-0.052271487416734735 0.0006486870997027619 0.032963553802303425 0 35 3
-0.05296860795787549 -0.00036989288012186095 0.03299687274874907 1 36 6
-0.05366572152510364 -0.0013884626107080328 0.03303019136656604 0 34 7
-0.054015479951939865 -0.0018965404719661627 0.03304714171236045 1 37 9
-0.05471258131482104 -0.00291509226638495 0.033080459755076896 2 26 4
-0.0456784885003981 0.010306695316714586 0.0314122573987865 0 34 7
-0.04637567425181803 0.009288019382178953 0.031445585623125605 0 34 7
-0.0470728530293255 0.008269353696881945 0.03147891351883614 0 35 3
-0.04777002483292048 0.007250698260823436 0.03151224108591766 0 34 1
-0.04811982712381048 0.006742555816420314 0.03152919970371615 1 36 4
-0.0488169867230583 0.005723918316529089 0.03156252669569748 0 36 10
-0.04951413934839362 0.004705291065876482 0.03159585335904991 0 35 3
-0.05021128499981628 0.003686674064462247 0.03162917969377366 0 35 3
-0.05090842367732629 0.0026680673122864776 0.031662505699868504 0 37 6
-0.051605555380923845 0.0016494708093493307 0.03169583137733456 0 39 10
-0.05230268011060871 0.0006308845556505654 0.031729156726171825 0 35 3
-0.05299979786638094 -0.00038769144880973147 0.0317624817463803 2 39 6
-0.05369690864824071 -0.0014062572040314317 0.031795806437960095 0 36 10
-0.05404666560869899 -0.001914333028384313 0.0318127629196715 0 35 11
-0.0547437641862116 -0.002932880847438743 0.03184608703615088 3 26 6
-0.04570970750595928 0.01028885510643101 0.030177808900902936 2 36 11
-0.04640689047201094 0.009270183147259912 0.030211143199004975 0 35 5
-0.04710406646415005 0.008251521437327382 0.030244477168478223 1 38 5
-0.04745387251909648 0.007743373342900574 0.030261442168665442 0 36 3
-0.049094751035598586 0.00763944898169517 0.030525535487261224 2 39 6
-0.04884819312076798 0.005706096044608599 0.030328108628782324 0 35 3
-0.0504863486096878 0.0056061505392664655 0.030592071765473072 0 35 3
-0.05024248582678925 0.003668859743270707 0.030394773774384154 0 34 4
-0.05093962171893081 0.0026502569664593467 0.030428105854241827 0 35 3
-0.05163675063716003 0.0016316644388866715 0.03046143760547082 1 37 11
-0.05233387258147651 0.0006130821605523848 0.0304947690280708 1 35 8
-0.05303098755188039 -0.0004054898685434266 0.030528100122042212 0 35 4
-0.053728095548371796 -0.0014240516484006413 0.030561430887384833 0 34 9
-0.054077851042451955 -0.0019321254358484162 0.030578393505013235 2 38 12
-0.054774946834596216 -0.0029506692795383746 0.030611723695255444 0 18 2
-0.04748508426453679 0.007725543269205205 0.02902702133225521 0 36 8
-0.04818224526696059 0.006706903470804534 0.029060360800390983 2 37 7
-0.04887939929547157 0.005688273921642213 0.029093699939897744 0 35 5
-0.05051749137976784 0.005588367019778443 0.029360067564271786 2 37 5
-0.050273686430756054 0.003651045571033188 0.029160377233025225 1 36 12
-0.050970819537529355 0.0026324467695863617 0.029193715386645835 0 35 2
-0.05166794567039003 0.001613858217378021 0.029227053211637544 0 35 3
-0.05236506482933824 0.0005952799144083067 0.029260390708000572 0 32 5
-0.05306217701437385 -0.0004232881393229915 0.02929372787573481 1 35 11
-0.053411936272510216 -0.0009313675767945694 0.02931069687575194 1 35 11
-0.05410903625319881 -0.0019499176943584343 0.029344033468385655 1 39 14
-0.054806129259974745 -0.002968457562683914 0.0293773697323908 3 26 8
-0.04751629578697106 0.007707713344463938 0.027792609873875662 0 38 11
-0.04821345400402641 0.006689077521427687 0.02782595541577415 1 35 8
-0.04891060524716921 0.005670451947629947 0.02785930062904385 0 36 10
-0.050548633927274086 0.005570583648955697 0.02812807272292106 0 35 3
-0.050304886811716756 0.00363323154774977 0.027925990069696982 0 34 4
-0.05100201713312179 0.0026146367216675036 0.02795933429708053 0 34 1
-0.051699140480614025 0.0015960521448235496 0.027992678195835063 0 38 1
-0.05239625685419383 0.0005774778172181992 0.028026021765960807 2 37 7
-0.05309336625386106 -0.00044108626114859953 0.02805936500745787 0 35 13
-0.053443124045619364 -0.0009491636617149531 0.02807634014339211 0 36 10
-0.05414022124093944 -0.001967709803914506 0.02810968280978876 2 40 15
-0.047547507086399224 0.007689883568676774 0.0265582077935268 0 34 7
-0.04824466251808612 0.006671251721004912 0.026591559409188115 0 32 3
-0.048941810975860506 0.005652630122571587 0.02662491069622064 1 36 4
-0.04963895245972222 0.004634018773376727 0.026658261654624482 0 33 0
-0.05033608696967143 0.0036154176734204072 0.026691612284399535 0 34 1
-0.05103321450570793 0.0025968268227024825 0.026724962585545686 1 38 4
-0.05173033506783205 0.0015782462212232291 0.026758312558063158 1 38 5
-0.052427448656043305 0.000559675868982229 0.026791662201951838 0 35 5
-0.053124555270342086 -0.00045888423402016404 0.026825011517211617 0 35 5
-0.053474311595722454 -0.0009669595976812759 0.026841992789062963 0 34 2
-0.05417140600567419 -0.0019855017645163606 0.02687534152922233 1 39 14
-0.04696721324901153 0.006257513506000477 0.025718425494425046 1 35 8
-0.04731768791352922 0.005748393898722951 0.02573544469378586 0 34 4
-0.04895833439776269 0.005644615157088615 0.0260079528783429 2 37 5
-0.04965547316995007 0.0046260077340353825 0.026041306811473763 0 34 1
-0.05035260496822465 0.0036074105602205003 0.02607466041597617 0 35 2
-0.05104972979258679 0.0025888236356441958 0.026108013691849452 3 38 6
-0.05176152943204382 0.0015604404465768378 0.025523956298321826 0 37 3
-0.052458640234886736 0.0005418740697003058 0.025557312015973332 0 39 12
-0.053155744063817165 -0.0004766820579375844 0.025590667404996048 0 37 8
-0.04598173913649971 0.005255466059548051 0.02422147259228724 1 40 13
-0.047348956665761444 0.005730533716525675 0.024498666729458995 0 39 12
-0.04898953973619348 0.0056267935927 0.02477357935707325 1 41 14
-0.046013074429269066 0.005237566674551003 0.02298211502388725 0 31 8
-0.04636427806041776 0.004727387913294939 0.022999182084043723 0 34 10
-0.049020744851618114 0.0056089721772654075 0.023539215213834175 0 34 8
-0.04604440949813454 0.005219667439107831 0.021742766871276076 2 37 13
-0.04639561165700108 0.004709490722957977 0.02175984009205445 0 37 12
-0.04905194974403655 0.005591150910784817 0.022304860448625896 0 39 10
-0.04607574434309597 0.005201768353218396 0.020503428134453938 1 41 14
-0.04642694502968048 0.0046915936821748 0.020520507515853992 1 41 15
-0.0481412506900389 0.004656373167486381 0.020821832621382153 1 40 19
-0.04677553613543253 0.00667968166410679 0.019518199011812953 1 42 10
-0.046458278178455895 0.004673696790945432 0.01928118435544246 1 41 15
-0.04817251575774968 0.0046385175653315125 0.019585098327434602 1 43 21
-0.046806806561240796 0.00666181824505277 0.018281461943001287 0 41 8
-0.04648961110332718 0.004655800049269732 0.018041870610819855 0 42 15
-0.048203780602021906 0.004620662112419363 0.01834837342969753 0 42 14
-0.04778250761269495 0.007557057273123337 0.017300741283270415 0 44 8
-0.04847964083512883 0.006538457179144291 0.017334138389998754 3 47 22
-0.04917676708364996 0.005519867334403652 0.017367535168098303 0 44 11
-0.04781371696081983 0.0075392288006843056 0.016066421260689467 0 43 6
-0.04756783167511289 0.005605516619944958 0.015841484073065293 0 45 17
-0.049207970861038036 0.005502046812693515 0.01613322729304323 0 45 16
-0.04990508735027836 0.004483471192555957 0.016166629816276812 1 41 15
-0.0475843884580501 0.005597483110015658 0.015223385615121932 2 48 19
-0.049224492833400746 0.005494032815412109 0.015516330432364334 0 43 16
-0.049921606610966465 0.004475461121415978 0.015549735930325381 0 43 16
-0.048558578254418075 0.006494790522241641 0.014248627068510378 0 44 17
-0.04925569622052814 0.005476212554371586 0.01428203896886271 0 44 17
-0.04995280721272548 0.004457644835739932 0.01431545054058636 0 45 14
-0.049286899384649474 0.005458392442285133 0.01304775688339177 1 47 19
-0.04904385413481534 0.0035206696442677578 0.012816968989812438 1 46 13
-0.05071230619477354 0.0034034631925859912 0.011880331285821222 0 43 10
-0.05140939766840895 0.0023849239231602086 0.011913754347813055 0 44 15
